<svg xmlns="http://www.w3.org/2000/svg" xmlns:xlink="http://www.w3.org/1999/xlink" width="375" zoomAndPan="magnify" viewBox="0 0 281.25 281.249989" height="375" preserveAspectRatio="xMidYMid meet" version="1.0"><defs><clipPath id="c4068db73d"><path d="M 169.574219 6.152344 L 175 6.152344 L 175 11 L 169.574219 11 Z M 169.574219 6.152344 " clip-rule="nonzero"/></clipPath><clipPath id="cfe178d8a5"><path d="M 6.246094 7 L 273 7 L 273 277 L 6.246094 277 Z M 6.246094 7 " clip-rule="nonzero"/></clipPath><clipPath id="39ebf49ea8"><path d="M 269 154.390625 L 274.183594 154.390625 L 274.183594 160 L 269 160 Z M 269 154.390625 " clip-rule="nonzero"/></clipPath><clipPath id="5d63d9faf5"><path d="M 269 111 L 274.183594 111 L 274.183594 116.621094 L 269 116.621094 Z M 269 111 " clip-rule="nonzero"/></clipPath></defs><path fill="#ffffff" d="M 252.882812 217.367188 C 252.882812 217.71875 252.816406 218.050781 252.6875 218.371094 C 252.550781 218.691406 252.359375 218.972656 252.121094 219.210938 C 251.875 219.457031 251.589844 219.648438 251.273438 219.777344 C 250.953125 219.914062 250.621094 219.980469 250.277344 219.980469 C 249.925781 219.980469 249.59375 219.914062 249.273438 219.777344 C 248.953125 219.648438 248.671875 219.457031 248.433594 219.210938 C 248.1875 218.972656 247.996094 218.691406 247.867188 218.371094 C 247.730469 218.050781 247.664062 217.71875 247.664062 217.367188 C 247.664062 217.023438 247.730469 216.691406 247.867188 216.371094 C 247.996094 216.050781 248.1875 215.769531 248.433594 215.53125 C 248.671875 215.285156 248.953125 215.09375 249.273438 214.964844 C 249.59375 214.828125 249.925781 214.761719 250.277344 214.761719 C 250.621094 214.761719 250.953125 214.828125 251.273438 214.964844 C 251.589844 215.09375 251.875 215.285156 252.121094 215.53125 C 252.359375 215.769531 252.550781 216.050781 252.6875 216.371094 C 252.816406 216.691406 252.882812 217.023438 252.882812 217.367188 Z M 252.882812 217.367188 " fill-opacity="1" fill-rule="nonzero"/><path fill="#ffffff" d="M 219.0625 246.773438 C 219.351562 247.054688 219.574219 247.386719 219.726562 247.761719 C 219.886719 248.136719 219.960938 248.53125 219.960938 248.9375 C 219.960938 249.34375 219.886719 249.730469 219.726562 250.105469 C 219.574219 250.480469 219.351562 250.8125 219.0625 251.101562 C 218.78125 251.382812 218.449219 251.605469 218.074219 251.765625 C 217.699219 251.917969 217.304688 251.992188 216.898438 251.992188 C 216.496094 251.992188 216.105469 251.917969 215.730469 251.765625 C 215.355469 251.605469 215.023438 251.382812 214.738281 251.101562 C 214.453125 250.8125 214.230469 250.480469 214.074219 250.105469 C 213.917969 249.730469 213.839844 249.34375 213.839844 248.9375 C 213.839844 248.53125 213.917969 248.136719 214.074219 247.761719 C 214.230469 247.386719 214.453125 247.054688 214.738281 246.773438 C 215.023438 246.484375 215.355469 246.261719 215.730469 246.109375 C 216.105469 245.949219 216.496094 245.875 216.898438 245.875 C 217.304688 245.875 217.699219 245.949219 218.074219 246.109375 C 218.449219 246.261719 218.78125 246.484375 219.0625 246.773438 Z M 219.0625 246.773438 " fill-opacity="1" fill-rule="nonzero"/><path fill="#ffffff" d="M 192.574219 233.792969 C 192.667969 234.164062 192.679688 234.539062 192.617188 234.914062 C 192.554688 235.289062 192.425781 235.640625 192.222656 235.957031 C 192.027344 236.285156 191.769531 236.5625 191.460938 236.78125 C 191.152344 237.003906 190.808594 237.15625 190.441406 237.25 C 190.070312 237.335938 189.695312 237.347656 189.320312 237.285156 C 188.945312 237.226562 188.597656 237.097656 188.269531 236.894531 C 187.945312 236.695312 187.675781 236.4375 187.453125 236.132812 C 187.230469 235.824219 187.070312 235.480469 186.984375 235.109375 C 186.898438 234.742188 186.886719 234.367188 186.949219 233.992188 C 187.011719 233.617188 187.140625 233.265625 187.335938 232.941406 C 187.539062 232.621094 187.792969 232.34375 188.105469 232.121094 C 188.410156 231.902344 188.75 231.742188 189.117188 231.65625 C 189.492188 231.570312 189.863281 231.558594 190.242188 231.617188 C 190.617188 231.679688 190.96875 231.808594 191.289062 232.007812 C 191.613281 232.207031 191.890625 232.460938 192.113281 232.773438 C 192.335938 233.082031 192.488281 233.417969 192.574219 233.792969 Z M 192.574219 233.792969 " fill-opacity="1" fill-rule="nonzero"/><path fill="#ffffff" d="M 150.683594 255.882812 C 150.683594 256.222656 150.617188 256.554688 150.488281 256.867188 C 150.351562 257.179688 150.167969 257.464844 149.925781 257.703125 C 149.6875 257.941406 149.40625 258.132812 149.089844 258.261719 C 148.777344 258.390625 148.445312 258.460938 148.109375 258.460938 C 147.765625 258.460938 147.4375 258.390625 147.117188 258.261719 C 146.804688 258.132812 146.527344 257.941406 146.28125 257.703125 C 146.042969 257.464844 145.859375 257.179688 145.730469 256.867188 C 145.59375 256.554688 145.53125 256.222656 145.53125 255.882812 C 145.53125 255.539062 145.59375 255.214844 145.730469 254.894531 C 145.859375 254.582031 146.042969 254.304688 146.28125 254.058594 C 146.527344 253.816406 146.804688 253.632812 147.117188 253.503906 C 147.4375 253.367188 147.765625 253.308594 148.109375 253.308594 C 148.445312 253.308594 148.777344 253.367188 149.089844 253.503906 C 149.40625 253.632812 149.6875 253.816406 149.925781 254.058594 C 150.167969 254.304688 150.351562 254.582031 150.488281 254.894531 C 150.617188 255.214844 150.683594 255.539062 150.683594 255.882812 Z M 150.683594 255.882812 " fill-opacity="1" fill-rule="nonzero"/><path fill="#ffffff" d="M 175.90625 191.199219 C 176.308594 191.363281 176.664062 191.601562 176.972656 191.910156 C 177.277344 192.21875 177.511719 192.574219 177.679688 192.972656 C 177.84375 193.375 177.929688 193.792969 177.929688 194.226562 C 177.929688 194.660156 177.84375 195.078125 177.679688 195.484375 C 177.511719 195.882812 177.277344 196.238281 176.972656 196.546875 C 176.664062 196.855469 176.308594 197.085938 175.90625 197.253906 C 175.503906 197.417969 175.082031 197.503906 174.652344 197.503906 C 174.21875 197.503906 173.800781 197.417969 173.398438 197.253906 C 173 197.085938 172.644531 196.855469 172.335938 196.546875 C 172.027344 196.238281 171.792969 195.882812 171.621094 195.484375 C 171.457031 195.078125 171.375 194.660156 171.375 194.226562 C 171.375 193.792969 171.457031 193.375 171.621094 192.972656 C 171.792969 192.574219 172.027344 192.21875 172.335938 191.910156 C 172.644531 191.601562 173 191.363281 173.398438 191.199219 C 173.800781 191.03125 174.21875 190.953125 174.652344 190.953125 C 175.082031 190.953125 175.503906 191.03125 175.90625 191.199219 Z M 175.90625 191.199219 " fill-opacity="1" fill-rule="nonzero"/><path fill="#ffffff" d="M 244.632812 45.34375 C 244.632812 45.640625 244.578125 45.929688 244.460938 46.199219 C 244.351562 46.476562 244.183594 46.714844 243.976562 46.925781 C 243.765625 47.132812 243.527344 47.292969 243.25 47.410156 C 242.980469 47.519531 242.691406 47.582031 242.394531 47.582031 C 242.101562 47.582031 241.816406 47.519531 241.539062 47.410156 C 241.261719 47.292969 241.023438 47.132812 240.816406 46.925781 C 240.605469 46.714844 240.445312 46.476562 240.328125 46.199219 C 240.21875 45.929688 240.15625 45.640625 240.15625 45.34375 C 240.15625 45.050781 240.21875 44.761719 240.328125 44.488281 C 240.445312 44.214844 240.605469 43.972656 240.816406 43.765625 C 241.023438 43.554688 241.261719 43.390625 241.539062 43.277344 C 241.816406 43.160156 242.101562 43.105469 242.394531 43.105469 C 242.691406 43.105469 242.980469 43.160156 243.25 43.277344 C 243.527344 43.390625 243.765625 43.554688 243.976562 43.765625 C 244.183594 43.972656 244.351562 44.214844 244.460938 44.488281 C 244.578125 44.761719 244.632812 45.050781 244.632812 45.34375 Z M 244.632812 45.34375 " fill-opacity="1" fill-rule="nonzero"/><path fill="#ffffff" d="M 265.824219 84.730469 C 266.996094 84.730469 267.949219 83.78125 267.949219 82.605469 C 267.949219 81.429688 266.996094 80.476562 265.824219 80.476562 C 264.648438 80.476562 263.695312 81.429688 263.695312 82.605469 C 263.695312 83.78125 264.648438 84.730469 265.824219 84.730469 Z M 265.824219 84.730469 " fill-opacity="1" fill-rule="nonzero"/><path fill="#ffffff" d="M 182.847656 74.765625 C 183.105469 75.023438 183.308594 75.328125 183.445312 75.664062 C 183.585938 76.003906 183.660156 76.351562 183.660156 76.722656 C 183.660156 77.089844 183.585938 77.441406 183.445312 77.785156 C 183.308594 78.125 183.105469 78.417969 182.847656 78.683594 C 182.585938 78.941406 182.289062 79.136719 181.949219 79.28125 C 181.605469 79.421875 181.257812 79.496094 180.886719 79.496094 C 180.519531 79.496094 180.167969 79.421875 179.828125 79.28125 C 179.492188 79.136719 179.191406 78.941406 178.933594 78.683594 C 178.667969 78.417969 178.472656 78.125 178.328125 77.785156 C 178.1875 77.441406 178.121094 77.089844 178.121094 76.722656 C 178.121094 76.351562 178.1875 76.003906 178.328125 75.664062 C 178.472656 75.328125 178.667969 75.023438 178.933594 74.765625 C 179.191406 74.503906 179.492188 74.304688 179.828125 74.164062 C 180.167969 74.023438 180.519531 73.957031 180.886719 73.957031 C 181.257812 73.957031 181.605469 74.023438 181.949219 74.164062 C 182.289062 74.304688 182.585938 74.503906 182.847656 74.765625 Z M 182.847656 74.765625 " fill-opacity="1" fill-rule="nonzero"/><path fill="#ffffff" d="M 207.714844 81.816406 C 207.972656 82.082031 208.175781 82.378906 208.316406 82.722656 C 208.460938 83.058594 208.527344 83.410156 208.527344 83.78125 C 208.527344 84.148438 208.460938 84.5 208.316406 84.835938 C 208.175781 85.179688 207.972656 85.476562 207.714844 85.742188 C 207.457031 86 207.15625 86.195312 206.816406 86.335938 C 206.480469 86.476562 206.125 86.546875 205.761719 86.546875 C 205.390625 86.546875 205.035156 86.476562 204.695312 86.335938 C 204.359375 86.195312 204.058594 86 203.800781 85.742188 C 203.542969 85.476562 203.339844 85.179688 203.195312 84.835938 C 203.0625 84.5 202.988281 84.148438 202.988281 83.78125 C 202.988281 83.410156 203.0625 83.058594 203.195312 82.722656 C 203.339844 82.378906 203.542969 82.082031 203.800781 81.816406 C 204.058594 81.558594 204.359375 81.363281 204.695312 81.222656 C 205.035156 81.082031 205.390625 81.007812 205.761719 81.007812 C 206.125 81.007812 206.480469 81.082031 206.816406 81.222656 C 207.15625 81.363281 207.457031 81.558594 207.714844 81.816406 Z M 207.714844 81.816406 " fill-opacity="1" fill-rule="nonzero"/><path fill="#ffffff" d="M 211.621094 104.449219 C 211.964844 104.589844 212.257812 104.785156 212.523438 105.042969 C 212.78125 105.308594 212.976562 105.605469 213.121094 105.949219 C 213.261719 106.285156 213.335938 106.636719 213.335938 107.003906 C 213.335938 107.375 213.261719 107.726562 213.121094 108.0625 C 212.976562 108.40625 212.78125 108.703125 212.523438 108.964844 C 212.257812 109.226562 211.964844 109.421875 211.621094 109.5625 C 211.28125 109.703125 210.929688 109.773438 210.5625 109.773438 C 210.191406 109.773438 209.84375 109.703125 209.503906 109.5625 C 209.160156 109.421875 208.867188 109.226562 208.601562 108.964844 C 208.34375 108.703125 208.144531 108.40625 208.003906 108.0625 C 207.863281 107.726562 207.796875 107.375 207.796875 107.003906 C 207.796875 106.636719 207.863281 106.285156 208.003906 105.949219 C 208.144531 105.605469 208.34375 105.308594 208.601562 105.042969 C 208.867188 104.785156 209.160156 104.589844 209.503906 104.449219 C 209.84375 104.304688 210.191406 104.234375 210.5625 104.234375 C 210.929688 104.234375 211.28125 104.304688 211.621094 104.449219 Z M 211.621094 104.449219 " fill-opacity="1" fill-rule="nonzero"/><path fill="#ffffff" d="M 211.21875 158.3125 C 211.304688 158.671875 211.316406 159.03125 211.257812 159.394531 C 211.203125 159.757812 211.074219 160.089844 210.882812 160.402344 C 210.683594 160.71875 210.4375 160.980469 210.144531 161.195312 C 209.84375 161.414062 209.515625 161.558594 209.160156 161.644531 C 208.804688 161.730469 208.441406 161.746094 208.078125 161.683594 C 207.714844 161.621094 207.378906 161.5 207.070312 161.308594 C 206.757812 161.109375 206.492188 160.863281 206.277344 160.570312 C 206.0625 160.269531 205.914062 159.941406 205.828125 159.585938 C 205.742188 159.230469 205.730469 158.867188 205.792969 158.503906 C 205.847656 158.140625 205.976562 157.804688 206.167969 157.488281 C 206.363281 157.183594 206.609375 156.917969 206.902344 156.703125 C 207.199219 156.488281 207.53125 156.339844 207.886719 156.253906 C 208.246094 156.167969 208.605469 156.15625 208.96875 156.21875 C 209.332031 156.273438 209.664062 156.402344 209.976562 156.59375 C 210.292969 156.789062 210.554688 157.027344 210.769531 157.332031 C 210.984375 157.625 211.132812 157.957031 211.21875 158.3125 Z M 211.21875 158.3125 " fill-opacity="1" fill-rule="nonzero"/><path fill="#ffffff" d="M 180.886719 46.796875 C 179.695312 46.796875 178.722656 47.761719 178.722656 48.960938 C 178.722656 50.15625 179.695312 51.121094 180.886719 51.121094 C 182.085938 51.121094 183.050781 50.15625 183.050781 48.960938 C 183.050781 47.761719 182.085938 46.796875 180.886719 46.796875 Z M 180.886719 46.796875 " fill-opacity="1" fill-rule="nonzero"/><g clip-path="url(#c4068db73d)"><path fill="#ffffff" d="M 171.972656 10.980469 C 173.269531 10.980469 174.320312 9.925781 174.320312 8.628906 C 174.320312 7.339844 173.269531 6.289062 171.972656 6.289062 C 170.683594 6.289062 169.632812 7.339844 169.632812 8.628906 C 169.632812 9.925781 170.683594 10.980469 171.972656 10.980469 Z M 171.972656 10.980469 " fill-opacity="1" fill-rule="nonzero"/></g><g clip-path="url(#cfe178d8a5)"><path fill="#ffffff" d="M 269.40625 142.703125 C 271.121094 142.703125 272.507812 141.316406 272.507812 139.605469 C 272.507812 137.898438 271.117188 136.507812 269.40625 136.507812 C 267.699219 136.507812 266.308594 137.898438 266.308594 139.605469 C 266.308594 140.246094 266.507812 140.835938 266.832031 141.332031 L 252.808594 151.6875 C 252.378906 151.515625 251.917969 151.421875 251.425781 151.421875 C 250.78125 151.421875 250.171875 151.589844 249.636719 151.878906 L 223.449219 128.597656 C 224.253906 127.660156 224.746094 126.449219 224.746094 125.117188 C 224.746094 124.890625 224.726562 124.667969 224.703125 124.453125 L 252.207031 121.398438 C 252.574219 122.707031 253.769531 123.660156 255.1875 123.660156 C 256.902344 123.660156 258.285156 122.269531 258.285156 120.5625 C 258.285156 119.191406 257.394531 118.027344 256.164062 117.617188 L 258.175781 104.847656 C 258.175781 104.847656 258.210938 104.847656 258.21875 104.847656 C 259.675781 104.847656 260.855469 103.667969 260.855469 102.210938 C 260.855469 100.757812 259.675781 99.578125 258.21875 99.578125 C 256.769531 99.578125 255.585938 100.757812 255.585938 102.210938 C 255.585938 103.296875 256.246094 104.234375 257.179688 104.632812 L 255.15625 117.457031 C 254.589844 117.457031 254.0625 117.617188 253.601562 117.886719 L 229.378906 88.972656 C 230.597656 88.21875 231.414062 86.871094 231.414062 85.328125 C 231.414062 85.148438 231.398438 84.972656 231.378906 84.800781 L 245.242188 84.800781 C 245.242188 84.800781 245.242188 84.824219 245.242188 84.84375 C 245.242188 86.292969 246.421875 87.472656 247.878906 87.472656 C 249.328125 87.472656 250.507812 86.292969 250.507812 84.84375 C 250.507812 83.386719 249.328125 82.207031 247.878906 82.207031 C 246.789062 82.207031 245.867188 82.855469 245.460938 83.792969 L 231.125 83.792969 C 230.707031 82.722656 229.890625 81.867188 228.84375 81.40625 L 227.136719 60.019531 C 228.273438 59.539062 229.074219 58.425781 229.074219 57.117188 C 229.074219 55.382812 227.664062 53.976562 225.929688 53.976562 C 224.191406 53.976562 222.789062 55.382812 222.789062 57.117188 C 222.789062 57.269531 222.800781 57.410156 222.820312 57.554688 L 202.910156 63.824219 C 202.578125 61.839844 200.878906 60.320312 198.8125 60.257812 L 190.859375 35.140625 C 191.429688 34.597656 191.847656 33.910156 192.058594 33.136719 L 203.457031 35.261719 C 203.527344 36.726562 204.726562 37.894531 206.210938 37.894531 C 207.691406 37.894531 208.976562 36.652344 208.976562 35.121094 C 208.976562 33.589844 207.742188 32.355469 206.210938 32.355469 C 205.085938 32.355469 204.113281 33.03125 203.683594 33.996094 L 192.199219 31.851562 C 192.105469 29.570312 190.230469 27.738281 187.925781 27.738281 C 186.636719 27.738281 185.484375 28.308594 184.703125 29.210938 L 147.1875 16.027344 C 147.457031 15.3125 147.609375 14.550781 147.609375 13.746094 C 147.609375 10.210938 144.746094 7.34375 141.210938 7.34375 C 137.675781 7.34375 134.804688 10.210938 134.804688 13.746094 C 134.804688 14.109375 134.847656 14.464844 134.902344 14.808594 L 96.542969 21.269531 C 95.777344 19.203125 93.800781 17.730469 91.476562 17.730469 C 88.492188 17.730469 86.078125 20.144531 86.078125 23.125 C 86.078125 23.414062 86.101562 23.6875 86.144531 23.960938 L 34.769531 64.148438 C 33.855469 62.515625 32.109375 61.40625 30.097656 61.40625 C 27.140625 61.40625 24.742188 63.804688 24.742188 66.757812 C 24.742188 68.925781 26.039062 70.796875 27.894531 71.632812 L 9.503906 138.636719 C 7.585938 139.453125 6.246094 141.351562 6.246094 143.566406 C 6.246094 145.785156 7.664062 147.78125 9.664062 148.558594 L 23.410156 202.96875 C 21.558594 204.378906 20.359375 206.597656 20.359375 209.113281 C 20.359375 213.378906 23.820312 216.839844 28.085938 216.839844 C 29.28125 216.839844 30.398438 216.5625 31.40625 216.078125 L 64.835938 250.351562 C 64.53125 251.03125 64.351562 251.78125 64.351562 252.574219 C 64.351562 255.53125 66.75 257.925781 69.707031 257.925781 C 71.773438 257.925781 73.5625 256.75 74.457031 255.035156 L 112.070312 268.328125 C 112.035156 268.621094 112.015625 268.910156 112.015625 269.207031 C 112.015625 273.460938 115.464844 276.910156 119.710938 276.910156 C 123.632812 276.910156 126.855469 273.980469 127.347656 270.203125 L 173.785156 264.171875 C 174.0625 266.101562 175.722656 267.589844 177.734375 267.589844 C 179.941406 267.589844 181.730469 265.800781 181.730469 263.597656 C 181.730469 263.421875 181.710938 263.25 181.691406 263.082031 L 203.394531 259.707031 L 203.332031 258.691406 L 181.433594 262.09375 C 181.226562 261.59375 180.925781 261.140625 180.550781 260.765625 L 208.621094 227.039062 C 209.09375 227.171875 209.589844 227.246094 210.101562 227.246094 C 211.25 227.246094 212.3125 226.878906 213.1875 226.269531 L 226.546875 230.511719 C 226.546875 230.511719 226.546875 230.519531 226.546875 230.523438 C 226.546875 232.332031 228.015625 233.800781 229.824219 233.800781 C 231.636719 233.800781 233.097656 232.332031 233.097656 230.523438 C 233.097656 228.710938 231.636719 227.246094 229.824219 227.246094 C 228.378906 227.246094 227.140625 228.1875 226.71875 229.496094 L 214.074219 225.484375 C 214.9375 224.535156 215.46875 223.277344 215.46875 221.898438 C 215.46875 219.773438 214.21875 217.933594 212.414062 217.066406 L 213.367188 202.261719 C 213.722656 202.390625 214.101562 202.472656 214.503906 202.472656 C 216.308594 202.472656 217.78125 201.007812 217.78125 199.195312 C 217.78125 198.757812 217.6875 198.339844 217.535156 197.960938 L 238.367188 187.324219 C 238.699219 187.773438 239.136719 188.140625 239.640625 188.375 L 234.957031 204.703125 C 233.214844 204.777344 231.820312 206.210938 231.820312 207.976562 C 231.820312 209.738281 233.285156 211.25 235.097656 211.25 C 236.90625 211.25 238.367188 209.78125 238.367188 207.976562 C 238.367188 206.46875 237.359375 205.203125 235.96875 204.820312 L 240.613281 188.664062 C 240.746094 188.675781 240.882812 188.6875 241.019531 188.6875 C 242.230469 188.6875 243.292969 188.027344 243.859375 187.046875 L 255.402344 191.472656 C 255.398438 191.546875 255.378906 191.621094 255.378906 191.695312 C 255.378906 193.132812 256.554688 194.300781 257.992188 194.300781 C 259.429688 194.300781 260.597656 193.132812 260.597656 191.695312 C 260.597656 190.257812 259.429688 189.089844 257.992188 189.089844 C 256.988281 189.089844 256.121094 189.667969 255.6875 190.496094 L 244.21875 186.09375 C 244.269531 185.875 244.300781 185.644531 244.300781 185.414062 C 244.300781 184.980469 244.214844 184.5625 244.0625 184.1875 L 251.042969 180.035156 L 250.527344 179.160156 L 243.542969 183.316406 C 242.941406 182.597656 242.03125 182.128906 241.023438 182.128906 C 240.226562 182.128906 239.5 182.417969 238.925781 182.890625 L 225.0625 170.703125 C 225.335938 170.183594 225.488281 169.601562 225.488281 168.980469 C 225.488281 168.425781 225.367188 167.898438 225.152344 167.425781 L 248.117188 156.957031 C 248.75 158.140625 250 158.953125 251.4375 158.953125 C 252.007812 158.953125 252.542969 158.824219 253.03125 158.589844 L 262.953125 170.160156 L 263.722656 169.503906 L 253.898438 158.039062 C 254.691406 157.34375 255.207031 156.328125 255.207031 155.191406 C 255.207031 154.054688 254.648438 152.941406 253.78125 152.246094 L 267.550781 142.078125 C 268.074219 142.476562 268.71875 142.71875 269.425781 142.71875 Z M 35.195312 68.390625 L 46.417969 73.199219 C 45.839844 74.207031 45.503906 75.375 45.503906 76.617188 C 45.503906 78.425781 46.203125 80.078125 47.355469 81.300781 L 32.464844 103.144531 C 32.253906 103.078125 32.046875 103.027344 31.832031 103.003906 L 30.78125 72.0625 C 32.859375 71.796875 34.566406 70.339844 35.195312 68.390625 Z M 158.535156 182.296875 C 157.875 181.722656 157.078125 181.304688 156.191406 181.109375 L 155.941406 150.015625 C 156.09375 150.019531 156.242188 150.039062 156.394531 150.039062 C 158.527344 150.039062 160.464844 149.238281 161.945312 147.929688 C 167.859375 154.335938 180.898438 168.488281 186.523438 174.722656 C 185.773438 175.464844 185.308594 176.492188 185.269531 177.625 L 158.535156 182.289062 Z M 167.09375 220.363281 C 167.09375 220.878906 167.191406 221.375 167.355469 221.835938 L 139.691406 224.972656 C 139.238281 223.878906 138.449219 222.957031 137.464844 222.3125 L 153.867188 191.546875 C 154.242188 191.632812 154.625 191.675781 155.019531 191.675781 C 155.910156 191.675781 156.746094 191.457031 157.488281 191.070312 L 168.894531 216.875 C 167.804688 217.652344 167.09375 218.921875 167.09375 220.363281 Z M 91.832031 221.769531 C 91.777344 219.6875 90.425781 217.941406 88.542969 217.300781 L 99.773438 190.238281 C 100.308594 190.355469 100.863281 190.417969 101.433594 190.417969 C 102.640625 190.417969 103.777344 190.132812 104.792969 189.636719 L 129.933594 223.277344 C 129.070312 224.222656 128.515625 225.453125 128.417969 226.8125 L 91.832031 221.765625 Z M 63.570312 181.550781 C 64.4375 180.972656 65.140625 180.15625 65.542969 179.183594 L 93.757812 183.21875 C 93.960938 186.328125 95.996094 188.929688 98.796875 189.957031 L 87.535156 217.078125 C 87.351562 217.0625 87.167969 217.046875 86.988281 217.046875 C 85.953125 217.046875 85.003906 217.367188 84.214844 217.921875 L 63.566406 181.550781 Z M 32.070312 164.804688 L 45.386719 138.660156 C 46.734375 139.808594 48.472656 140.503906 50.390625 140.503906 C 50.421875 140.503906 50.457031 140.503906 50.488281 140.503906 L 59.339844 171.898438 C 57.640625 172.316406 56.253906 173.546875 55.632812 175.164062 L 33.421875 167.855469 C 33.449219 167.695312 33.464844 167.542969 33.464844 167.382812 C 33.464844 166.304688 32.90625 165.359375 32.070312 164.804688 Z M 59.175781 75.675781 L 73.660156 69.847656 C 73.9375 70.820312 74.667969 71.589844 75.609375 71.925781 L 75.738281 93.992188 C 75.398438 94.175781 75.105469 94.421875 74.863281 94.722656 L 58.070312 80.472656 C 58.8125 79.371094 59.25 78.042969 59.25 76.625 C 59.25 76.304688 59.226562 75.992188 59.183594 75.683594 Z M 187.328125 174.105469 C 181.6875 167.84375 168.605469 153.648438 162.671875 147.222656 C 164 145.742188 164.816406 143.773438 164.816406 141.628906 C 164.816406 141.390625 164.800781 141.160156 164.773438 140.929688 L 191.386719 139.046875 C 191.699219 140.375 192.636719 141.464844 193.863281 141.992188 L 189.292969 173.5 C 188.578125 173.542969 187.902344 173.757812 187.324219 174.113281 Z M 134.277344 221.371094 C 132.921875 221.371094 131.679688 221.832031 130.683594 222.601562 L 105.675781 189.144531 C 107.28125 188.082031 108.460938 186.425781 108.917969 184.492188 L 149.683594 186.703125 C 149.8125 188.664062 151.003906 190.332031 152.6875 191.15625 L 136.550781 221.832031 C 135.847656 221.535156 135.074219 221.375 134.269531 221.375 Z M 65.871094 178.144531 C 65.9375 177.800781 65.96875 177.453125 65.96875 177.09375 C 65.96875 174.957031 64.707031 173.109375 62.902344 172.257812 L 74.386719 153.328125 C 75.152344 153.753906 76.03125 153.992188 76.960938 153.992188 C 78.234375 153.992188 79.402344 153.550781 80.324219 152.804688 L 98.3125 175.699219 C 95.804688 176.8125 94.007812 179.226562 93.769531 182.085938 Z M 56.992188 136.746094 L 71.765625 147.363281 C 71.667969 147.777344 71.605469 148.199219 71.605469 148.644531 C 71.605469 150.296875 72.355469 151.773438 73.535156 152.761719 L 62.097656 171.957031 C 61.628906 171.828125 61.128906 171.746094 60.621094 171.746094 C 60.511719 171.746094 60.398438 171.757812 60.289062 171.765625 L 51.546875 140.425781 C 53.863281 140.074219 55.84375 138.691406 56.992188 136.753906 Z M 76.707031 72.117188 C 78.207031 72.097656 79.449219 71.015625 79.734375 69.597656 L 99.964844 73.542969 C 99.964844 73.585938 99.960938 73.628906 99.960938 73.667969 C 99.960938 74.699219 100.328125 75.652344 100.9375 76.394531 L 78.804688 94.316406 C 78.324219 93.917969 77.710938 93.660156 77.035156 93.660156 C 77.003906 93.660156 76.96875 93.671875 76.9375 93.671875 L 76.714844 72.125 Z M 123.148438 60.152344 C 123.148438 60.152344 123.15625 60.152344 123.167969 60.152344 L 133.667969 91.058594 C 133.484375 91.195312 133.308594 91.339844 133.15625 91.511719 L 108.183594 75.523438 C 108.457031 74.957031 108.609375 74.332031 108.609375 73.667969 C 108.609375 72.917969 108.414062 72.210938 108.082031 71.59375 L 121.136719 59.273438 C 121.640625 59.816406 122.355469 60.160156 123.15625 60.160156 Z M 150.875 64.402344 C 151.292969 64.402344 151.691406 64.363281 152.089844 64.308594 L 159.363281 97.828125 C 158.675781 98.109375 158.109375 98.625 157.746094 99.265625 L 138.617188 93.78125 C 138.617188 93.714844 138.628906 93.652344 138.628906 93.589844 C 138.628906 92.460938 138.027344 91.46875 137.128906 90.921875 L 148.070312 63.945312 C 148.957031 64.242188 149.898438 64.402344 150.878906 64.402344 Z M 183.167969 110.816406 L 161.441406 134.902344 C 160.273438 134.023438 158.878906 133.441406 157.347656 133.269531 L 160.832031 104.292969 C 162.222656 104.226562 163.386719 103.324219 163.832031 102.070312 L 182.167969 107.320312 C 182.128906 107.539062 182.105469 107.773438 182.105469 108.007812 C 182.105469 109.082031 182.511719 110.066406 183.167969 110.816406 Z M 148.777344 145.199219 L 129.429688 153.941406 C 128.859375 153.21875 127.96875 152.742188 126.964844 152.742188 C 126.460938 152.742188 125.984375 152.867188 125.558594 153.082031 L 107.558594 128.515625 C 108.84375 127.722656 109.90625 126.621094 110.648438 125.308594 L 148.679688 138.265625 C 148.226562 139.292969 147.972656 140.429688 147.972656 141.628906 C 147.972656 142.902344 148.261719 144.113281 148.773438 145.199219 Z M 103.164062 175.230469 L 102.640625 129.863281 C 102.703125 129.863281 102.761719 129.875 102.824219 129.875 C 104.195312 129.875 105.492188 129.554688 106.667969 129.007812 L 124.734375 153.679688 C 124.179688 154.242188 123.835938 155.019531 123.835938 155.875 C 123.835938 156.476562 124.007812 157.035156 124.304688 157.519531 L 105.769531 176.375 C 104.988281 175.839844 104.101562 175.453125 103.15625 175.230469 Z M 104.28125 77.988281 C 105.644531 77.988281 106.855469 77.359375 107.648438 76.378906 L 132.617188 92.363281 C 132.449219 92.738281 132.363281 93.15625 132.363281 93.589844 C 132.363281 94.175781 132.523438 94.722656 132.804688 95.191406 L 109.511719 114.855469 C 108 113.171875 105.859375 112.058594 103.453125 111.894531 L 103.9375 77.96875 C 104.046875 77.980469 104.164062 77.988281 104.273438 77.988281 Z M 159.824219 104.195312 L 156.332031 133.21875 C 155.785156 133.21875 155.25 133.273438 154.730469 133.378906 L 137.261719 96.171875 C 137.765625 95.828125 138.160156 95.34375 138.386719 94.773438 L 157.371094 100.210938 C 157.324219 100.445312 157.292969 100.683594 157.292969 100.9375 C 157.292969 102.503906 158.367188 103.820312 159.824219 104.195312 Z M 110.160156 115.648438 L 133.464844 95.96875 C 134.011719 96.445312 134.71875 96.71875 135.5 96.71875 C 135.792969 96.71875 136.078125 96.675781 136.347656 96.601562 L 153.738281 133.648438 C 151.796875 134.292969 150.171875 135.621094 149.152344 137.355469 L 111.117188 124.390625 C 111.574219 123.308594 111.832031 122.117188 111.832031 120.867188 C 111.832031 118.914062 111.203125 117.125 110.160156 115.644531 Z M 79.796875 96.425781 C 79.796875 95.804688 79.578125 95.246094 79.242188 94.785156 L 101.75 77.164062 C 102.109375 77.421875 102.511719 77.636719 102.941406 77.773438 L 102.449219 111.886719 C 99.816406 111.992188 97.480469 113.21875 95.902344 115.113281 L 78.898438 98.449219 C 79.445312 97.9375 79.789062 97.230469 79.789062 96.425781 Z M 96.4375 127.21875 L 80.515625 144.648438 C 79.566406 143.8125 78.324219 143.296875 76.960938 143.296875 C 74.820312 143.296875 72.976562 144.554688 72.117188 146.375 L 57.460938 135.839844 C 57.859375 134.914062 58.082031 133.890625 58.082031 132.820312 C 58.082031 131.460938 57.726562 130.1875 57.109375 129.082031 L 94.210938 123.523438 C 94.648438 124.933594 95.417969 126.199219 96.429688 127.21875 Z M 101.433594 175.035156 C 100.691406 175.035156 99.988281 175.140625 99.3125 175.335938 L 81.054688 152.09375 C 81.84375 151.15625 82.316406 149.960938 82.316406 148.644531 C 82.316406 147.421875 81.898438 146.296875 81.203125 145.390625 L 97.191406 127.894531 C 98.441406 128.898438 99.960938 129.5625 101.621094 129.789062 L 102.140625 175.074219 C 101.910156 175.054688 101.667969 175.035156 101.433594 175.035156 Z M 124.972656 158.28125 C 125.515625 158.730469 126.210938 159.003906 126.964844 159.003906 C 127.640625 159.003906 128.261719 158.78125 128.773438 158.425781 L 151.6875 182.148438 C 150.609375 183.003906 149.871094 184.257812 149.699219 185.695312 L 109.089844 183.496094 C 109.113281 183.25 109.125 182.996094 109.125 182.730469 C 109.125 180.464844 108.136719 178.421875 106.566406 177.015625 L 124.972656 158.289062 Z M 152.550781 181.582031 L 129.492188 157.707031 C 129.875 157.1875 130.09375 156.554688 130.09375 155.867188 C 130.09375 155.503906 130.035156 155.160156 129.917969 154.835938 L 149.269531 146.085938 C 150.511719 148.066406 152.546875 149.492188 154.933594 149.910156 L 155.183594 180.988281 C 155.132812 180.988281 155.078125 180.980469 155.019531 180.980469 C 154.132812 180.980469 153.296875 181.203125 152.558594 181.582031 Z M 191.265625 138.03125 L 164.632812 139.921875 C 164.28125 138.21875 163.414062 136.710938 162.203125 135.554688 L 183.910156 111.492188 C 184.613281 111.992188 185.460938 112.28125 186.378906 112.28125 C 186.714844 112.28125 187.035156 112.238281 187.347656 112.167969 L 194.085938 134.035156 C 192.445312 134.632812 191.269531 136.195312 191.257812 138.039062 Z M 182.4375 106.339844 L 164.023438 101.0625 C 164.023438 101.015625 164.03125 100.972656 164.03125 100.929688 C 164.03125 99.070312 162.519531 97.5625 160.660156 97.5625 C 160.550781 97.5625 160.445312 97.570312 160.335938 97.582031 L 153.082031 64.121094 C 153.875 63.917969 154.625 63.613281 155.320312 63.214844 L 184.273438 104.269531 C 183.449219 104.730469 182.800781 105.460938 182.429688 106.339844 Z M 147.113281 63.570312 L 136.175781 90.535156 C 135.953125 90.488281 135.71875 90.457031 135.488281 90.457031 C 135.160156 90.457031 134.847656 90.503906 134.558594 90.597656 L 124.15625 59.949219 C 125.175781 59.546875 125.902344 58.554688 125.902344 57.386719 C 125.902344 57.3125 125.890625 57.234375 125.882812 57.160156 L 141.960938 56.625 C 142.390625 59.71875 144.382812 62.3125 147.117188 63.566406 Z M 120.375 57.394531 C 120.375 57.773438 120.449219 58.136719 120.589844 58.46875 L 107.515625 70.808594 C 106.722656 69.910156 105.566406 69.339844 104.269531 69.339844 C 104.238281 69.339844 104.214844 69.339844 104.183594 69.339844 L 93.558594 28.101562 C 94.0625 27.890625 94.53125 27.601562 94.9375 27.257812 L 121.195312 55.421875 C 120.6875 55.917969 120.371094 56.613281 120.371094 57.382812 Z M 91.476562 28.523438 C 91.886719 28.523438 92.292969 28.476562 92.679688 28.390625 L 103.164062 69.484375 C 101.667969 69.878906 100.5 71.054688 100.101562 72.542969 L 79.753906 68.570312 C 79.605469 67.5 78.921875 66.601562 77.976562 66.160156 L 90.832031 28.480469 C 91.046875 28.511719 91.253906 28.523438 91.46875 28.523438 Z M 75.496094 98.71875 C 75.933594 99.011719 76.457031 99.179688 77.015625 99.179688 C 77.367188 99.179688 77.699219 99.105469 78.007812 98.988281 L 95.28125 115.933594 C 94.351562 117.347656 93.804688 119.042969 93.804688 120.867188 C 93.804688 121.433594 93.867188 121.988281 93.972656 122.527344 L 56.488281 128.148438 C 56.15625 127.71875 55.789062 127.316406 55.371094 126.96875 Z M 194.835938 142.273438 C 195.070312 142.3125 195.304688 142.335938 195.542969 142.335938 C 197.910156 142.335938 199.828125 140.417969 199.828125 138.058594 C 199.828125 137.664062 199.765625 137.277344 199.675781 136.917969 L 215.183594 128.421875 C 215.542969 128.871094 215.960938 129.265625 216.4375 129.585938 L 190.398438 172.894531 L 194.835938 142.28125 Z M 199.28125 135.96875 C 198.550781 134.65625 197.148438 133.773438 195.542969 133.773438 C 195.382812 133.773438 195.222656 133.785156 195.074219 133.796875 L 188.308594 111.824219 C 189.046875 111.449219 189.652344 110.878906 190.078125 110.171875 L 215.597656 121.347656 C 214.636719 122.3125 214.042969 123.648438 214.042969 125.109375 C 214.042969 125.996094 214.261719 126.832031 214.636719 127.570312 L 199.289062 135.96875 Z M 216.46875 120.621094 L 190.476562 109.238281 C 190.601562 108.84375 190.660156 108.429688 190.660156 108 C 190.660156 107.417969 190.546875 106.863281 190.335938 106.355469 L 223.558594 87.683594 C 223.957031 88.292969 224.511719 88.789062 225.15625 89.128906 L 218.167969 119.910156 C 217.550781 120.042969 216.980469 120.296875 216.46875 120.628906 Z M 223.109375 86.773438 L 189.839844 105.472656 C 189.296875 104.730469 188.535156 104.171875 187.636719 103.902344 L 197.988281 68.742188 C 198.222656 68.785156 198.457031 68.808594 198.703125 68.808594 C 199.890625 68.808594 200.964844 68.324219 201.738281 67.542969 L 223.011719 84.171875 C 222.914062 84.535156 222.851562 84.921875 222.851562 85.324219 C 222.851562 85.832031 222.945312 86.320312 223.109375 86.765625 Z M 197.011719 68.464844 L 186.628906 103.730469 C 186.550781 103.730469 186.464844 103.714844 186.382812 103.714844 C 185.988281 103.714844 185.609375 103.773438 185.238281 103.871094 L 156.171875 62.65625 C 157.742188 61.507812 158.929688 59.878906 159.492188 57.972656 L 194.429688 64.273438 C 194.429688 64.359375 194.417969 64.4375 194.417969 64.523438 C 194.417969 66.296875 195.488281 67.808594 197.011719 68.464844 Z M 141.875 55.605469 L 125.570312 56.097656 C 125.109375 55.222656 124.199219 54.621094 123.140625 54.621094 C 122.773438 54.621094 122.421875 54.695312 122.109375 54.824219 L 95.527344 26.6875 C 95.976562 26.175781 96.324219 25.589844 96.554688 24.945312 L 142.53125 51.984375 C 142.101562 53.035156 141.863281 54.179688 141.863281 55.390625 C 141.863281 55.457031 141.875 55.523438 141.875 55.605469 Z M 89.589844 28.171875 L 76.960938 65.871094 C 76.863281 65.863281 76.757812 65.859375 76.652344 65.859375 C 74.925781 65.859375 73.523438 67.261719 73.523438 68.988281 C 73.523438 69 73.523438 69.011719 73.523438 69.023438 L 58.964844 74.734375 C 58.609375 73.496094 57.914062 72.394531 56.988281 71.546875 L 88.605469 27.695312 C 88.910156 27.890625 89.242188 28.050781 89.582031 28.179688 Z M 57.421875 81.257812 L 74.386719 95.652344 C 74.3125 95.890625 74.257812 96.148438 74.257812 96.414062 C 74.257812 97.007812 74.445312 97.550781 74.765625 98 L 54.566406 126.351562 C 53.496094 125.664062 52.253906 125.226562 50.914062 125.136719 L 53.3125 83.410156 C 54.925781 83.1875 56.367188 82.402344 57.417969 81.253906 Z M 49.898438 125.136719 C 47.949219 125.25 46.203125 126.085938 44.90625 127.390625 L 33.523438 108.171875 C 34.117188 107.625 34.492188 106.84375 34.492188 105.972656 C 34.492188 105.019531 34.042969 104.171875 33.347656 103.628906 L 48.097656 82.003906 C 49.253906 82.917969 50.703125 83.472656 52.285156 83.492188 L 49.886719 125.140625 Z M 31.503906 108.964844 C 31.921875 108.964844 32.316406 108.875 32.679688 108.726562 L 44.21875 128.207031 C 43.257812 129.492188 42.679688 131.078125 42.679688 132.8125 C 42.679688 133.023438 42.699219 133.226562 42.710938 133.433594 L 16.5 141.421875 C 16.136719 140.601562 15.582031 139.894531 14.882812 139.355469 L 30.378906 108.746094 C 30.730469 108.886719 31.113281 108.964844 31.511719 108.964844 Z M 16.804688 142.378906 L 42.859375 134.441406 C 43.160156 135.839844 43.84375 137.085938 44.785156 138.082031 L 31.15625 164.40625 C 30.910156 164.339844 30.644531 164.300781 30.375 164.300781 C 29.859375 164.300781 29.371094 164.429688 28.941406 164.65625 L 15.625 147.082031 C 16.441406 146.136719 16.941406 144.910156 16.941406 143.566406 C 16.941406 143.160156 16.890625 142.765625 16.804688 142.378906 Z M 30.964844 170.394531 C 31.890625 170.214844 32.679688 169.613281 33.101562 168.800781 L 55.351562 176.125 C 55.296875 176.4375 55.257812 176.757812 55.257812 177.082031 C 55.257812 178.675781 55.960938 180.101562 57.066406 181.078125 L 34.371094 204.617188 C 33.21875 203.011719 31.472656 201.863281 29.453125 201.5 L 30.964844 170.386719 Z M 34.917969 205.507812 L 57.898438 181.6875 C 58.695312 182.160156 59.625 182.429688 60.613281 182.429688 C 61.359375 182.429688 62.070312 182.285156 62.710938 182.007812 L 83.503906 218.519531 C 83.097656 218.941406 82.757812 219.441406 82.523438 219.988281 L 35.683594 210.433594 C 35.757812 209.996094 35.808594 209.5625 35.808594 209.105469 C 35.808594 207.808594 35.484375 206.589844 34.917969 205.507812 Z M 91.746094 222.785156 L 128.421875 227.835938 C 128.652344 230.117188 130.1875 232.007812 132.273438 232.761719 L 124.1875 262.945312 C 122.925781 262.042969 121.378906 261.503906 119.710938 261.503906 C 118.039062 261.503906 116.417969 262.066406 115.136719 263.015625 L 88.488281 226.484375 C 90.152344 225.945312 91.421875 224.523438 91.746094 222.777344 Z M 125.035156 263.652344 L 133.238281 233.027344 C 133.574219 233.082031 133.914062 233.117188 134.269531 233.117188 C 135.90625 233.117188 137.386719 232.449219 138.457031 231.367188 L 174.222656 261.675781 C 173.976562 262.125 173.816406 262.613281 173.761719 263.144531 L 127.402344 269.148438 C 127.390625 266.992188 126.480469 265.050781 125.035156 263.652344 Z M 174.800781 260.882812 L 139.089844 230.605469 C 139.757812 229.652344 140.152344 228.496094 140.152344 227.242188 C 140.152344 226.796875 140.097656 226.367188 140.003906 225.957031 L 167.859375 222.796875 C 168.550781 223.792969 169.648438 224.480469 170.914062 224.617188 L 176.578125 259.773438 C 175.890625 259.984375 175.285156 260.371094 174.808594 260.882812 Z M 169.777344 216.390625 L 158.34375 190.515625 C 159.578125 189.539062 160.367188 188.027344 160.367188 186.328125 C 160.367188 185.15625 159.984375 184.074219 159.347656 183.1875 L 185.355469 178.644531 C 185.613281 179.875 186.394531 180.90625 187.460938 181.507812 L 174.101562 217.0625 C 173.363281 216.453125 172.410156 216.082031 171.375 216.082031 C 170.8125 216.082031 170.277344 216.195312 169.785156 216.390625 Z M 174.855469 217.890625 L 188.394531 181.890625 C 188.761719 181.988281 189.144531 182.050781 189.542969 182.050781 C 190.601562 182.050781 191.566406 181.664062 192.316406 181.03125 L 212.0625 196.996094 C 211.539062 197.578125 211.214844 198.347656 211.214844 199.195312 C 211.214844 199.453125 211.246094 199.707031 211.304688 199.953125 L 175.230469 218.519531 C 175.121094 218.296875 175.003906 218.085938 174.863281 217.890625 Z M 214.484375 195.914062 C 213.898438 195.914062 213.351562 196.074219 212.878906 196.335938 L 193 180.28125 C 193.507812 179.574219 193.816406 178.707031 193.816406 177.765625 C 193.816406 177.425781 193.773438 177.101562 193.699219 176.78125 L 218.082031 169.96875 C 218.398438 171.125 219.261719 172.058594 220.367188 172.476562 L 215.085938 195.96875 C 214.894531 195.929688 214.6875 195.90625 214.484375 195.90625 Z M 217.953125 168.957031 L 193.347656 175.828125 C 192.867188 174.882812 192.050781 174.144531 191.054688 173.769531 L 217.34375 130.058594 C 217.902344 130.292969 218.511719 130.429688 219.136719 130.453125 L 221.03125 165.273438 C 219.285156 165.585938 217.953125 167.117188 217.953125 168.957031 Z M 252.832031 118.53125 C 252.402344 119.035156 252.132812 119.675781 252.097656 120.382812 L 224.480469 123.449219 C 223.78125 121.3125 221.769531 119.753906 219.390625 119.753906 C 219.347656 119.753906 219.296875 119.761719 219.25 119.761719 L 226.128906 89.476562 C 226.453125 89.558594 226.792969 89.601562 227.140625 89.601562 C 227.589844 89.601562 228.027344 89.535156 228.433594 89.40625 L 252.839844 118.527344 Z M 225.9375 60.246094 C 226.003906 60.246094 226.074219 60.238281 226.140625 60.234375 L 227.804688 81.097656 C 227.585938 81.066406 227.363281 81.042969 227.136719 81.042969 C 225.542969 81.042969 224.15625 81.917969 223.417969 83.203125 L 202.359375 66.746094 C 202.699219 66.191406 202.914062 65.550781 202.96875 64.863281 L 223.132812 58.511719 C 223.652344 59.539062 224.707031 60.246094 225.9375 60.246094 Z M 197.789062 60.351562 C 196.269531 60.675781 195.050781 61.808594 194.601562 63.28125 L 159.714844 56.992188 C 159.808594 56.476562 159.867188 55.941406 159.867188 55.394531 C 159.867188 53.367188 159.191406 51.503906 158.054688 49.992188 L 184.488281 34.574219 C 185.277344 35.625 186.519531 36.300781 187.925781 36.300781 C 188.675781 36.300781 189.378906 36.109375 189.992188 35.765625 Z M 184.113281 30.078125 C 183.820312 30.65625 183.648438 31.320312 183.648438 32.023438 C 183.648438 32.617188 183.769531 33.183594 183.984375 33.699219 L 157.398438 49.203125 C 155.75 47.476562 153.4375 46.390625 150.863281 46.390625 C 150.160156 46.390625 149.472656 46.480469 148.808594 46.628906 L 142.648438 19.980469 C 144.402344 19.578125 145.871094 18.453125 146.75 16.949219 Z M 135.148438 15.796875 C 136.003906 18.332031 138.386719 20.152344 141.210938 20.152344 C 141.351562 20.152344 141.5 20.144531 141.648438 20.132812 L 147.84375 46.929688 C 145.753906 47.675781 144.019531 49.15625 142.96875 51.074219 L 96.804688 23.9375 C 96.847656 23.671875 96.875 23.410156 96.875 23.132812 C 96.875 22.832031 96.84375 22.542969 96.800781 22.253906 Z M 86.421875 25.03125 C 86.722656 25.820312 87.195312 26.519531 87.804688 27.078125 L 56.195312 70.917969 C 55.105469 70.179688 53.785156 69.75 52.363281 69.75 C 50.1875 69.75 48.25 70.769531 46.992188 72.355469 L 35.398438 67.390625 C 35.421875 67.1875 35.433594 66.984375 35.433594 66.773438 C 35.433594 66.195312 35.339844 65.644531 35.167969 65.121094 Z M 28.855469 71.964844 C 29.152344 72.03125 29.453125 72.074219 29.765625 72.097656 L 30.816406 103.070312 C 29.5 103.378906 28.53125 104.558594 28.53125 105.972656 C 28.53125 106.859375 28.917969 107.652344 29.527344 108.199219 L 14.027344 138.800781 C 13.300781 138.425781 12.476562 138.210938 11.597656 138.210938 C 11.273438 138.210938 10.953125 138.242188 10.652344 138.296875 Z M 10.78125 148.847656 C 11.046875 148.890625 11.316406 148.921875 11.597656 148.921875 C 12.839844 148.921875 13.992188 148.488281 14.898438 147.777344 L 28.148438 165.261719 C 27.625 165.808594 27.304688 166.550781 27.304688 167.375 C 27.304688 168.925781 28.449219 170.203125 29.9375 170.417969 L 28.097656 201.378906 C 28.097656 201.378906 28.09375 201.378906 28.085938 201.378906 C 26.710938 201.378906 25.425781 201.742188 24.304688 202.367188 Z M 32.324219 215.5625 C 33.796875 214.589844 34.917969 213.140625 35.457031 211.410156 L 82.234375 220.957031 C 82.175781 221.257812 82.144531 221.566406 82.144531 221.886719 C 82.144531 223.28125 82.734375 224.535156 83.679688 225.421875 L 70.929688 247.363281 C 70.535156 247.269531 70.125 247.214844 69.707031 247.214844 C 67.917969 247.214844 66.34375 248.09375 65.367188 249.441406 Z M 74.832031 254.09375 C 74.980469 253.609375 75.054688 253.097656 75.054688 252.570312 C 75.054688 250.394531 73.765625 248.53125 71.902344 247.6875 L 84.492188 226.035156 C 85.21875 226.472656 86.070312 226.730469 86.988281 226.730469 C 87.125 226.730469 87.253906 226.71875 87.382812 226.707031 L 114.382812 263.652344 C 113.359375 264.636719 112.609375 265.898438 112.253906 267.316406 Z M 179.707031 260.125 C 179.128906 259.789062 178.445312 259.597656 177.734375 259.597656 C 177.679688 259.597656 177.617188 259.597656 177.5625 259.601562 L 171.925781 224.605469 C 174.007812 224.339844 175.625 222.570312 175.65625 220.421875 L 204.757812 222.101562 C 204.832031 224.042969 205.945312 225.730469 207.5625 226.601562 Z M 211.460938 216.714844 C 211.023438 216.601562 210.574219 216.53125 210.101562 216.53125 C 207.414062 216.53125 205.203125 218.503906 204.8125 221.082031 L 175.550781 219.398438 C 175.539062 219.347656 175.527344 219.304688 175.507812 219.261719 L 211.75 200.964844 C 211.976562 201.3125 212.265625 201.613281 212.597656 201.851562 L 211.453125 216.714844 Z M 238.25 183.636719 C 237.929688 184.140625 237.742188 184.742188 237.742188 185.394531 C 237.742188 185.746094 237.800781 186.09375 237.90625 186.414062 L 217.035156 197.117188 C 216.765625 196.78125 216.425781 196.503906 216.046875 196.292969 L 221.214844 172.679688 C 221.382812 172.699219 221.554688 172.71875 221.726562 172.71875 C 222.8125 172.71875 223.792969 172.257812 224.480469 171.519531 L 238.257812 183.636719 Z M 224.609375 166.546875 C 223.984375 165.808594 223.078125 165.304688 222.050781 165.210938 L 220.164062 130.386719 C 221.125 130.25 222.003906 129.863281 222.726562 129.285156 L 248.8125 152.46875 C 248.105469 153.15625 247.667969 154.109375 247.667969 155.160156 C 247.667969 155.441406 247.707031 155.71875 247.761719 155.984375 L 224.609375 166.539062 Z M 224.609375 166.546875 " fill-opacity="1" fill-rule="nonzero"/></g><g clip-path="url(#39ebf49ea8)"><path fill="#ffffff" d="M 274.246094 156.984375 C 274.246094 157.28125 274.191406 157.5625 274.078125 157.835938 C 273.964844 158.105469 273.804688 158.34375 273.59375 158.554688 C 273.386719 158.761719 273.144531 158.921875 272.875 159.03125 C 272.605469 159.148438 272.320312 159.207031 272.027344 159.207031 C 271.730469 159.207031 271.449219 159.148438 271.179688 159.03125 C 270.90625 158.921875 270.660156 158.761719 270.457031 158.554688 C 270.25 158.34375 270.089844 158.105469 269.972656 157.835938 C 269.863281 157.5625 269.808594 157.28125 269.808594 156.984375 C 269.808594 156.691406 269.863281 156.40625 269.972656 156.136719 C 270.089844 155.859375 270.25 155.621094 270.457031 155.410156 C 270.660156 155.210938 270.90625 155.042969 271.179688 154.933594 C 271.449219 154.820312 271.730469 154.765625 272.027344 154.765625 C 272.320312 154.765625 272.605469 154.820312 272.875 154.933594 C 273.144531 155.042969 273.386719 155.210938 273.59375 155.410156 C 273.804688 155.621094 273.964844 155.859375 274.078125 156.136719 C 274.191406 156.40625 274.246094 156.691406 274.246094 156.984375 Z M 274.246094 156.984375 " fill-opacity="1" fill-rule="nonzero"/></g><path fill="#ffffff" d="M 235.003906 150.320312 C 235.089844 150.660156 235.105469 151.003906 235.042969 151.347656 C 234.988281 151.691406 234.871094 152.011719 234.6875 152.3125 C 234.5 152.609375 234.265625 152.859375 233.984375 153.0625 C 233.703125 153.265625 233.386719 153.40625 233.050781 153.492188 C 232.707031 153.574219 232.367188 153.585938 232.023438 153.523438 C 231.679688 153.46875 231.355469 153.351562 231.058594 153.167969 C 230.761719 152.984375 230.511719 152.75 230.308594 152.46875 C 230.097656 152.183594 229.957031 151.871094 229.878906 151.53125 C 229.796875 151.195312 229.785156 150.851562 229.839844 150.507812 C 229.898438 150.160156 230.019531 149.835938 230.203125 149.542969 C 230.386719 149.246094 230.621094 148.992188 230.90625 148.792969 C 231.1875 148.582031 231.5 148.441406 231.839844 148.359375 C 232.175781 148.28125 232.523438 148.269531 232.867188 148.324219 C 233.210938 148.378906 233.53125 148.503906 233.832031 148.6875 C 234.125 148.871094 234.378906 149.105469 234.582031 149.386719 C 234.785156 149.671875 234.925781 149.984375 235.003906 150.320312 Z M 235.003906 150.320312 " fill-opacity="1" fill-rule="nonzero"/><path fill="#ffffff" d="M 246.089844 169.71875 C 246.089844 170.589844 246.796875 171.304688 247.667969 171.304688 C 248.542969 171.304688 249.253906 170.589844 249.253906 169.71875 C 249.253906 168.84375 248.542969 168.132812 247.667969 168.132812 C 246.796875 168.132812 246.089844 168.84375 246.089844 169.71875 Z M 246.089844 169.71875 " fill-opacity="1" fill-rule="nonzero"/><path fill="#ffffff" d="M 206.332031 179.386719 C 205.460938 179.386719 204.746094 180.101562 204.746094 180.972656 C 204.746094 181.847656 205.460938 182.558594 206.332031 182.558594 C 207.207031 182.558594 207.917969 181.847656 207.917969 180.972656 C 207.917969 180.101562 207.207031 179.386719 206.332031 179.386719 Z M 206.332031 179.386719 " fill-opacity="1" fill-rule="nonzero"/><path fill="#ffffff" d="M 200.417969 121.671875 C 199.546875 121.671875 198.839844 122.386719 198.839844 123.261719 C 198.839844 124.132812 199.546875 124.847656 200.417969 124.847656 C 201.292969 124.847656 202.003906 124.132812 202.003906 123.261719 C 202.003906 122.386719 201.292969 121.671875 200.417969 121.671875 Z M 200.417969 121.671875 " fill-opacity="1" fill-rule="nonzero"/><path fill="#ffffff" d="M 191.375 197.605469 C 190.503906 197.605469 189.789062 198.308594 189.789062 199.183594 C 189.789062 200.054688 190.503906 200.769531 191.375 200.769531 C 192.25 200.769531 192.957031 200.054688 192.957031 199.183594 C 192.957031 198.308594 192.25 197.605469 191.375 197.605469 Z M 191.375 197.605469 " fill-opacity="1" fill-rule="nonzero"/><path fill="#ffffff" d="M 164.425781 234.386719 C 163.550781 234.386719 162.84375 235.097656 162.84375 235.972656 C 162.84375 236.84375 163.550781 237.558594 164.425781 237.558594 C 165.296875 237.558594 166.011719 236.84375 166.011719 235.972656 C 166.011719 235.097656 165.296875 234.386719 164.425781 234.386719 Z M 164.425781 234.386719 " fill-opacity="1" fill-rule="nonzero"/><path fill="#ffffff" d="M 253.335938 136.378906 C 253.417969 136.71875 253.429688 137.0625 253.375 137.40625 C 253.320312 137.75 253.195312 138.070312 253.011719 138.363281 C 252.828125 138.664062 252.59375 138.910156 252.3125 139.121094 C 252.027344 139.324219 251.722656 139.464844 251.375 139.546875 C 251.039062 139.625 250.695312 139.636719 250.351562 139.582031 C 250.003906 139.527344 249.6875 139.402344 249.382812 139.226562 C 249.089844 139.039062 248.835938 138.808594 248.632812 138.523438 C 248.433594 138.242188 248.289062 137.929688 248.210938 137.582031 C 248.128906 137.246094 248.117188 136.902344 248.171875 136.558594 C 248.230469 136.214844 248.34375 135.894531 248.53125 135.597656 C 248.714844 135.296875 248.949219 135.050781 249.230469 134.84375 C 249.515625 134.640625 249.828125 134.496094 250.164062 134.417969 C 250.507812 134.335938 250.847656 134.324219 251.191406 134.382812 C 251.542969 134.4375 251.863281 134.558594 252.15625 134.738281 C 252.453125 134.921875 252.703125 135.15625 252.90625 135.4375 C 253.117188 135.726562 253.257812 136.035156 253.335938 136.378906 Z M 253.335938 136.378906 " fill-opacity="1" fill-rule="nonzero"/><path fill="#ffffff" d="M 234.757812 109.050781 C 234.839844 109.390625 234.851562 109.734375 234.796875 110.078125 C 234.742188 110.421875 234.617188 110.742188 234.433594 111.039062 C 234.25 111.339844 234.015625 111.589844 233.734375 111.792969 C 233.449219 111.996094 233.140625 112.136719 232.796875 112.21875 C 232.460938 112.296875 232.117188 112.3125 231.773438 112.253906 C 231.425781 112.199219 231.109375 112.082031 230.804688 111.898438 C 230.511719 111.714844 230.257812 111.480469 230.054688 111.199219 C 229.851562 110.914062 229.710938 110.601562 229.632812 110.261719 C 229.550781 109.917969 229.539062 109.582031 229.59375 109.230469 C 229.652344 108.886719 229.765625 108.566406 229.953125 108.273438 C 230.136719 107.96875 230.371094 107.726562 230.652344 107.515625 C 230.933594 107.3125 231.25 107.171875 231.585938 107.089844 C 231.929688 107.011719 232.269531 107 232.613281 107.054688 C 232.964844 107.109375 233.285156 107.234375 233.578125 107.417969 C 233.875 107.59375 234.125 107.828125 234.328125 108.113281 C 234.539062 108.402344 234.679688 108.707031 234.757812 109.050781 Z M 234.757812 109.050781 " fill-opacity="1" fill-rule="nonzero"/><path fill="#ffffff" d="M 160.90625 31.417969 C 160.988281 31.757812 161 32.101562 160.945312 32.445312 C 160.890625 32.789062 160.765625 33.109375 160.585938 33.410156 C 160.402344 33.707031 160.167969 33.957031 159.886719 34.160156 C 159.597656 34.363281 159.289062 34.507812 158.945312 34.585938 C 158.609375 34.664062 158.265625 34.679688 157.917969 34.621094 C 157.574219 34.566406 157.253906 34.449219 156.960938 34.265625 C 156.660156 34.082031 156.40625 33.847656 156.203125 33.566406 C 156 33.28125 155.859375 32.96875 155.78125 32.628906 C 155.699219 32.285156 155.6875 31.949219 155.742188 31.605469 C 155.796875 31.261719 155.914062 30.933594 156.101562 30.640625 C 156.285156 30.34375 156.519531 30.09375 156.800781 29.890625 C 157.082031 29.679688 157.398438 29.539062 157.734375 29.457031 C 158.078125 29.378906 158.421875 29.367188 158.769531 29.421875 C 159.113281 29.476562 159.433594 29.601562 159.726562 29.785156 C 160.027344 29.96875 160.273438 30.203125 160.484375 30.484375 C 160.6875 30.769531 160.828125 31.082031 160.90625 31.417969 Z M 160.90625 31.417969 " fill-opacity="1" fill-rule="nonzero"/><path fill="#ffffff" d="M 132.085938 31.417969 C 132.167969 31.757812 132.179688 32.101562 132.125 32.445312 C 132.070312 32.789062 131.945312 33.109375 131.761719 33.40625 C 131.578125 33.707031 131.34375 33.957031 131.058594 34.160156 C 130.777344 34.363281 130.464844 34.507812 130.125 34.585938 C 129.789062 34.664062 129.445312 34.679688 129.097656 34.621094 C 128.753906 34.566406 128.433594 34.445312 128.132812 34.265625 C 127.839844 34.082031 127.585938 33.847656 127.382812 33.566406 C 127.179688 33.28125 127.039062 32.96875 126.960938 32.625 C 126.875 32.285156 126.863281 31.941406 126.921875 31.597656 C 126.976562 31.253906 127.09375 30.933594 127.28125 30.640625 C 127.464844 30.335938 127.699219 30.09375 127.980469 29.882812 C 128.261719 29.679688 128.578125 29.539062 128.914062 29.457031 C 129.257812 29.378906 129.597656 29.367188 129.941406 29.421875 C 130.285156 29.476562 130.613281 29.601562 130.90625 29.777344 C 131.203125 29.960938 131.453125 30.195312 131.65625 30.480469 C 131.867188 30.769531 132.007812 31.074219 132.085938 31.417969 Z M 132.085938 31.417969 " fill-opacity="1" fill-rule="nonzero"/><g clip-path="url(#5d63d9faf5)"><path fill="#ffffff" d="M 274.589844 113.175781 C 274.671875 113.515625 274.683594 113.859375 274.628906 114.203125 C 274.570312 114.546875 274.449219 114.867188 274.269531 115.164062 C 274.085938 115.464844 273.851562 115.714844 273.570312 115.917969 C 273.28125 116.121094 272.972656 116.265625 272.628906 116.34375 C 272.289062 116.421875 271.945312 116.4375 271.601562 116.378906 C 271.257812 116.324219 270.9375 116.203125 270.644531 116.023438 C 270.34375 115.839844 270.089844 115.605469 269.886719 115.324219 C 269.683594 115.039062 269.542969 114.726562 269.464844 114.382812 C 269.382812 114.042969 269.371094 113.699219 269.425781 113.355469 C 269.480469 113.011719 269.597656 112.691406 269.78125 112.398438 C 269.96875 112.09375 270.199219 111.851562 270.484375 111.640625 C 270.765625 111.4375 271.078125 111.296875 271.425781 111.214844 C 271.761719 111.136719 272.105469 111.125 272.449219 111.179688 C 272.796875 111.234375 273.113281 111.359375 273.410156 111.535156 C 273.710938 111.71875 273.957031 111.953125 274.164062 112.238281 C 274.367188 112.527344 274.511719 112.832031 274.589844 113.175781 Z M 274.589844 113.175781 " fill-opacity="1" fill-rule="nonzero"/></g><path fill="#ffffff" d="M 243.777344 68.324219 C 244.398438 69.140625 245.574219 69.296875 246.390625 68.667969 C 247.203125 68.046875 247.355469 66.867188 246.734375 66.054688 C 246.109375 65.238281 244.933594 65.085938 244.121094 65.710938 C 243.296875 66.339844 243.152344 67.511719 243.777344 68.324219 Z M 243.777344 68.324219 " fill-opacity="1" fill-rule="nonzero"/><path fill="#ffffff" d="M 206.214844 47.171875 C 205.398438 47.796875 205.25 48.972656 205.871094 49.78125 C 206.5 50.59375 207.671875 50.753906 208.484375 50.128906 C 209.308594 49.507812 209.457031 48.324219 208.835938 47.515625 C 208.207031 46.695312 207.035156 46.542969 206.214844 47.171875 Z M 206.214844 47.171875 " fill-opacity="1" fill-rule="nonzero"/></svg>