<svg xmlns="http://www.w3.org/2000/svg" xmlns:xlink="http://www.w3.org/1999/xlink" width="375" zoomAndPan="magnify" viewBox="0 0 281.25 281.249989" height="375" preserveAspectRatio="xMidYMid meet" version="1.0"><defs><clipPath id="8b9a49f0b8"><path d="M 165.804688 9.332031 L 171 9.332031 L 171 14.273438 L 165.804688 14.273438 Z M 165.804688 9.332031 " clip-rule="nonzero"/></clipPath><clipPath id="bf23768077"><path d="M 5.164062 10 L 267.964844 10 L 267.964844 275.863281 L 5.164062 275.863281 Z M 5.164062 10 " clip-rule="nonzero"/></clipPath><clipPath id="fb12ac7795"><path d="M 264 155.128906 L 268.691406 155.128906 L 268.691406 160 L 264 160 Z M 264 155.128906 " clip-rule="nonzero"/></clipPath><clipPath id="3f2c55c784"><path d="M 263.320312 112 L 268.691406 112 L 268.691406 117.980469 L 263.320312 117.980469 Z M 263.320312 112 " clip-rule="nonzero"/></clipPath></defs><path fill="#10144a" d="M 247.738281 217.066406 C 247.738281 217.414062 247.671875 217.738281 247.546875 218.054688 C 247.414062 218.367188 247.226562 218.644531 246.988281 218.882812 C 246.75 219.125 246.46875 219.3125 246.15625 219.4375 C 245.839844 219.570312 245.515625 219.636719 245.175781 219.636719 C 244.832031 219.636719 244.503906 219.570312 244.191406 219.4375 C 243.875 219.3125 243.597656 219.125 243.363281 218.882812 C 243.121094 218.644531 242.933594 218.367188 242.804688 218.054688 C 242.671875 217.738281 242.605469 217.414062 242.605469 217.066406 C 242.605469 216.730469 242.671875 216.402344 242.804688 216.089844 C 242.933594 215.773438 243.121094 215.496094 243.363281 215.261719 C 243.597656 215.019531 243.875 214.832031 244.191406 214.703125 C 244.503906 214.570312 244.832031 214.503906 245.175781 214.503906 C 245.515625 214.503906 245.839844 214.570312 246.15625 214.703125 C 246.46875 214.832031 246.75 215.019531 246.988281 215.261719 C 247.226562 215.496094 247.414062 215.773438 247.546875 216.089844 C 247.671875 216.402344 247.738281 216.730469 247.738281 217.066406 Z M 247.738281 217.066406 " fill-opacity="1" fill-rule="nonzero"/><path fill="#10144a" d="M 214.480469 245.988281 C 214.761719 246.265625 214.980469 246.59375 215.132812 246.960938 C 215.289062 247.332031 215.363281 247.71875 215.363281 248.117188 C 215.363281 248.515625 215.289062 248.894531 215.132812 249.265625 C 214.980469 249.632812 214.761719 249.960938 214.480469 250.246094 C 214.199219 250.523438 213.875 250.742188 213.503906 250.898438 C 213.136719 251.046875 212.75 251.121094 212.351562 251.121094 C 211.953125 251.121094 211.570312 251.046875 211.203125 250.898438 C 210.832031 250.742188 210.507812 250.523438 210.222656 250.246094 C 209.945312 249.960938 209.726562 249.632812 209.570312 249.265625 C 209.417969 248.894531 209.339844 248.515625 209.339844 248.117188 C 209.339844 247.71875 209.417969 247.332031 209.570312 246.960938 C 209.726562 246.59375 209.945312 246.265625 210.222656 245.988281 C 210.507812 245.703125 210.832031 245.484375 211.203125 245.335938 C 211.570312 245.175781 211.953125 245.105469 212.351562 245.105469 C 212.75 245.105469 213.136719 245.175781 213.503906 245.335938 C 213.875 245.484375 214.199219 245.703125 214.480469 245.988281 Z M 214.480469 245.988281 " fill-opacity="1" fill-rule="nonzero"/><path fill="#10144a" d="M 188.425781 233.222656 C 188.515625 233.585938 188.527344 233.957031 188.46875 234.324219 C 188.40625 234.691406 188.28125 235.039062 188.082031 235.351562 C 187.886719 235.671875 187.632812 235.945312 187.332031 236.164062 C 187.027344 236.378906 186.691406 236.53125 186.328125 236.621094 C 185.964844 236.707031 185.59375 236.71875 185.226562 236.660156 C 184.859375 236.597656 184.511719 236.472656 184.191406 236.269531 C 183.871094 236.078125 183.605469 235.824219 183.386719 235.523438 C 183.171875 235.21875 183.011719 234.878906 182.929688 234.519531 C 182.84375 234.15625 182.832031 233.785156 182.890625 233.417969 C 182.953125 233.046875 183.078125 232.703125 183.273438 232.382812 C 183.472656 232.070312 183.722656 231.796875 184.027344 231.578125 C 184.332031 231.363281 184.664062 231.203125 185.027344 231.121094 C 185.394531 231.035156 185.757812 231.023438 186.132812 231.082031 C 186.503906 231.144531 186.847656 231.269531 187.160156 231.464844 C 187.480469 231.664062 187.753906 231.910156 187.972656 232.21875 C 188.1875 232.523438 188.339844 232.855469 188.425781 233.222656 Z M 188.425781 233.222656 " fill-opacity="1" fill-rule="nonzero"/><path fill="#10144a" d="M 147.226562 254.949219 C 147.226562 255.28125 147.160156 255.609375 147.03125 255.917969 C 146.898438 256.222656 146.71875 256.503906 146.480469 256.738281 C 146.246094 256.972656 145.96875 257.160156 145.660156 257.289062 C 145.351562 257.414062 145.023438 257.480469 144.691406 257.480469 C 144.351562 257.480469 144.03125 257.414062 143.71875 257.289062 C 143.410156 257.160156 143.136719 256.972656 142.894531 256.738281 C 142.660156 256.503906 142.476562 256.222656 142.351562 255.917969 C 142.21875 255.609375 142.15625 255.28125 142.15625 254.949219 C 142.15625 254.609375 142.21875 254.289062 142.351562 253.976562 C 142.476562 253.667969 142.660156 253.394531 142.894531 253.152344 C 143.136719 252.917969 143.410156 252.734375 143.71875 252.609375 C 144.03125 252.476562 144.351562 252.414062 144.691406 252.414062 C 145.023438 252.414062 145.351562 252.476562 145.660156 252.609375 C 145.96875 252.734375 146.246094 252.917969 146.480469 253.152344 C 146.71875 253.394531 146.898438 253.667969 147.03125 253.976562 C 147.160156 254.289062 147.226562 254.609375 147.226562 254.949219 Z M 147.226562 254.949219 " fill-opacity="1" fill-rule="nonzero"/><path fill="#10144a" d="M 172.03125 191.328125 C 172.425781 191.492188 172.777344 191.726562 173.078125 192.03125 C 173.382812 192.332031 173.609375 192.683594 173.773438 193.074219 C 173.9375 193.46875 174.023438 193.878906 174.023438 194.308594 C 174.023438 194.734375 173.9375 195.144531 173.773438 195.542969 C 173.609375 195.9375 173.382812 196.285156 173.078125 196.589844 C 172.777344 196.890625 172.425781 197.121094 172.03125 197.285156 C 171.632812 197.449219 171.222656 197.53125 170.800781 197.53125 C 170.371094 197.53125 169.960938 197.449219 169.566406 197.285156 C 169.171875 197.121094 168.824219 196.890625 168.519531 196.589844 C 168.21875 196.285156 167.988281 195.9375 167.820312 195.542969 C 167.65625 195.144531 167.578125 194.734375 167.578125 194.308594 C 167.578125 193.878906 167.65625 193.46875 167.820312 193.074219 C 167.988281 192.683594 168.21875 192.332031 168.519531 192.03125 C 168.824219 191.726562 169.171875 191.492188 169.566406 191.328125 C 169.960938 191.164062 170.371094 191.085938 170.800781 191.085938 C 171.222656 191.085938 171.632812 191.164062 172.03125 191.328125 Z M 172.03125 191.328125 " fill-opacity="1" fill-rule="nonzero"/><path fill="#10144a" d="M 239.625 47.878906 C 239.625 48.167969 239.570312 48.453125 239.457031 48.71875 C 239.347656 48.992188 239.183594 49.226562 238.980469 49.433594 C 238.773438 49.636719 238.539062 49.796875 238.265625 49.910156 C 238 50.019531 237.714844 50.078125 237.425781 50.078125 C 237.132812 50.078125 236.855469 50.019531 236.585938 49.910156 C 236.3125 49.796875 236.078125 49.636719 235.871094 49.433594 C 235.664062 49.226562 235.507812 48.992188 235.394531 48.71875 C 235.285156 48.453125 235.222656 48.167969 235.222656 47.878906 C 235.222656 47.589844 235.285156 47.304688 235.394531 47.039062 C 235.507812 46.765625 235.664062 46.53125 235.871094 46.324219 C 236.078125 46.117188 236.3125 45.957031 236.585938 45.847656 C 236.855469 45.730469 237.132812 45.675781 237.425781 45.675781 C 237.714844 45.675781 238 45.730469 238.265625 45.847656 C 238.539062 45.957031 238.773438 46.117188 238.980469 46.324219 C 239.183594 46.53125 239.347656 46.765625 239.457031 47.039062 C 239.570312 47.304688 239.625 47.589844 239.625 47.878906 Z M 239.625 47.878906 " fill-opacity="1" fill-rule="nonzero"/><path fill="#10144a" d="M 260.46875 86.617188 C 261.621094 86.617188 262.558594 85.679688 262.558594 84.527344 C 262.558594 83.371094 261.621094 82.433594 260.46875 82.433594 C 259.3125 82.433594 258.375 83.371094 258.375 84.527344 C 258.375 85.679688 259.3125 86.617188 260.46875 86.617188 Z M 260.46875 86.617188 " fill-opacity="1" fill-rule="nonzero"/><path fill="#10144a" d="M 178.859375 76.816406 C 179.113281 77.070312 179.3125 77.367188 179.445312 77.699219 C 179.585938 78.03125 179.65625 78.375 179.65625 78.738281 C 179.65625 79.101562 179.585938 79.445312 179.445312 79.785156 C 179.3125 80.117188 179.113281 80.40625 178.859375 80.667969 C 178.597656 80.921875 178.308594 81.117188 177.976562 81.253906 C 177.636719 81.394531 177.292969 81.464844 176.929688 81.464844 C 176.566406 81.464844 176.222656 81.394531 175.890625 81.253906 C 175.558594 81.117188 175.261719 80.921875 175.007812 80.667969 C 174.746094 80.40625 174.554688 80.117188 174.414062 79.785156 C 174.277344 79.445312 174.210938 79.101562 174.210938 78.738281 C 174.210938 78.375 174.277344 78.03125 174.414062 77.699219 C 174.554688 77.367188 174.746094 77.070312 175.007812 76.816406 C 175.261719 76.554688 175.558594 76.363281 175.890625 76.222656 C 176.222656 76.085938 176.566406 76.019531 176.929688 76.019531 C 177.292969 76.019531 177.636719 76.085938 177.976562 76.222656 C 178.308594 76.363281 178.597656 76.554688 178.859375 76.816406 Z M 178.859375 76.816406 " fill-opacity="1" fill-rule="nonzero"/><path fill="#10144a" d="M 203.316406 83.75 C 203.570312 84.011719 203.769531 84.300781 203.910156 84.640625 C 204.046875 84.972656 204.113281 85.316406 204.113281 85.679688 C 204.113281 86.042969 204.046875 86.386719 203.910156 86.71875 C 203.769531 87.058594 203.570312 87.347656 203.316406 87.609375 C 203.0625 87.863281 202.765625 88.054688 202.433594 88.195312 C 202.101562 88.335938 201.75 88.402344 201.394531 88.402344 C 201.03125 88.402344 200.679688 88.335938 200.347656 88.195312 C 200.015625 88.054688 199.71875 87.863281 199.464844 87.609375 C 199.210938 87.347656 199.011719 87.058594 198.871094 86.71875 C 198.738281 86.386719 198.667969 86.042969 198.667969 85.679688 C 198.667969 85.316406 198.738281 84.972656 198.871094 84.640625 C 199.011719 84.300781 199.210938 84.011719 199.464844 83.75 C 199.71875 83.496094 200.015625 83.304688 200.347656 83.164062 C 200.679688 83.027344 201.03125 82.953125 201.394531 82.953125 C 201.75 82.953125 202.101562 83.027344 202.433594 83.164062 C 202.765625 83.304688 203.0625 83.496094 203.316406 83.75 Z M 203.316406 83.75 " fill-opacity="1" fill-rule="nonzero"/><path fill="#10144a" d="M 207.15625 106.007812 C 207.496094 106.148438 207.785156 106.339844 208.046875 106.59375 C 208.300781 106.855469 208.492188 107.144531 208.632812 107.484375 C 208.769531 107.816406 208.84375 108.160156 208.84375 108.523438 C 208.84375 108.886719 208.769531 109.230469 208.632812 109.5625 C 208.492188 109.902344 208.300781 110.191406 208.046875 110.453125 C 207.785156 110.707031 207.496094 110.898438 207.15625 111.039062 C 206.824219 111.179688 206.480469 111.246094 206.117188 111.246094 C 205.753906 111.246094 205.410156 111.179688 205.078125 111.039062 C 204.738281 110.898438 204.449219 110.707031 204.1875 110.453125 C 203.933594 110.191406 203.742188 109.902344 203.601562 109.5625 C 203.460938 109.230469 203.394531 108.886719 203.394531 108.523438 C 203.394531 108.160156 203.460938 107.816406 203.601562 107.484375 C 203.742188 107.144531 203.933594 106.855469 204.1875 106.59375 C 204.449219 106.339844 204.738281 106.148438 205.078125 106.007812 C 205.410156 105.871094 205.753906 105.796875 206.117188 105.796875 C 206.480469 105.796875 206.824219 105.871094 207.15625 106.007812 Z M 207.15625 106.007812 " fill-opacity="1" fill-rule="nonzero"/><path fill="#10144a" d="M 206.761719 158.988281 C 206.847656 159.335938 206.859375 159.695312 206.800781 160.050781 C 206.746094 160.40625 206.617188 160.734375 206.429688 161.042969 C 206.238281 161.351562 205.996094 161.609375 205.707031 161.824219 C 205.410156 162.035156 205.089844 162.179688 204.738281 162.265625 C 204.386719 162.347656 204.03125 162.359375 203.671875 162.300781 C 203.316406 162.238281 202.984375 162.117188 202.683594 161.929688 C 202.375 161.738281 202.113281 161.496094 201.902344 161.207031 C 201.691406 160.910156 201.546875 160.589844 201.460938 160.238281 C 201.375 159.886719 201.363281 159.53125 201.425781 159.175781 C 201.480469 158.816406 201.605469 158.484375 201.792969 158.175781 C 201.988281 157.875 202.230469 157.613281 202.519531 157.402344 C 202.808594 157.191406 203.136719 157.046875 203.488281 156.960938 C 203.835938 156.875 204.195312 156.863281 204.550781 156.925781 C 204.90625 156.980469 205.234375 157.105469 205.542969 157.292969 C 205.851562 157.488281 206.109375 157.722656 206.320312 158.019531 C 206.535156 158.308594 206.679688 158.636719 206.761719 158.988281 Z M 206.761719 158.988281 " fill-opacity="1" fill-rule="nonzero"/><path fill="#10144a" d="M 176.929688 49.304688 C 175.757812 49.304688 174.800781 50.253906 174.800781 51.433594 C 174.800781 52.613281 175.757812 53.5625 176.929688 53.5625 C 178.109375 53.5625 179.058594 52.613281 179.058594 51.433594 C 179.058594 50.253906 178.109375 49.304688 176.929688 49.304688 Z M 176.929688 49.304688 " fill-opacity="1" fill-rule="nonzero"/><g clip-path="url(#8b9a49f0b8)"><path fill="#10144a" d="M 168.164062 14.078125 C 169.4375 14.078125 170.472656 13.046875 170.472656 11.769531 C 170.472656 10.5 169.4375 9.464844 168.164062 9.464844 C 166.894531 9.464844 165.859375 10.5 165.859375 11.769531 C 165.859375 13.046875 166.894531 14.078125 168.164062 14.078125 Z M 168.164062 14.078125 " fill-opacity="1" fill-rule="nonzero"/></g><g clip-path="url(#bf23768077)"><path fill="#10144a" d="M 263.992188 143.636719 C 265.679688 143.636719 267.039062 142.269531 267.039062 140.585938 C 267.039062 138.90625 265.671875 137.539062 263.992188 137.539062 C 262.3125 137.539062 260.945312 138.90625 260.945312 140.585938 C 260.945312 141.214844 261.136719 141.796875 261.460938 142.285156 L 247.667969 152.46875 C 247.242188 152.300781 246.789062 152.207031 246.308594 152.207031 C 245.671875 152.207031 245.074219 152.371094 244.546875 152.65625 L 218.789062 129.757812 C 219.582031 128.839844 220.066406 127.648438 220.066406 126.335938 C 220.066406 126.113281 220.046875 125.894531 220.023438 125.683594 L 247.074219 122.679688 C 247.4375 123.964844 248.609375 124.902344 250.007812 124.902344 C 251.695312 124.902344 253.054688 123.535156 253.054688 121.855469 C 253.054688 120.507812 252.179688 119.363281 250.96875 118.960938 L 252.945312 106.402344 C 252.945312 106.402344 252.980469 106.402344 252.988281 106.402344 C 254.421875 106.402344 255.582031 105.242188 255.582031 103.808594 C 255.582031 102.378906 254.421875 101.21875 252.988281 101.21875 C 251.5625 101.21875 250.398438 102.378906 250.398438 103.808594 C 250.398438 104.878906 251.046875 105.796875 251.964844 106.191406 L 249.976562 118.800781 C 249.421875 118.800781 248.902344 118.960938 248.445312 119.226562 L 224.625 90.789062 C 225.820312 90.046875 226.625 88.722656 226.625 87.203125 C 226.625 87.027344 226.609375 86.851562 226.589844 86.683594 L 240.222656 86.683594 C 240.222656 86.683594 240.222656 86.707031 240.222656 86.726562 C 240.222656 88.152344 241.386719 89.3125 242.816406 89.3125 C 244.246094 89.3125 245.40625 88.152344 245.40625 86.726562 C 245.40625 85.292969 244.246094 84.132812 242.816406 84.132812 C 241.746094 84.132812 240.839844 84.773438 240.441406 85.691406 L 226.339844 85.691406 C 225.929688 84.640625 225.125 83.800781 224.097656 83.347656 L 222.417969 62.3125 C 223.535156 61.839844 224.320312 60.746094 224.320312 59.457031 C 224.320312 57.753906 222.9375 56.367188 221.234375 56.367188 C 219.519531 56.367188 218.144531 57.753906 218.144531 59.457031 C 218.144531 59.609375 218.15625 59.746094 218.171875 59.886719 L 198.589844 66.054688 C 198.261719 64.101562 196.59375 62.605469 194.5625 62.546875 L 186.738281 37.839844 C 187.300781 37.308594 187.710938 36.632812 187.917969 35.871094 L 199.125 37.960938 C 199.199219 39.402344 200.378906 40.550781 201.835938 40.550781 C 203.292969 40.550781 204.554688 39.328125 204.554688 37.824219 C 204.554688 36.316406 203.339844 35.101562 201.835938 35.101562 C 200.730469 35.101562 199.773438 35.765625 199.351562 36.71875 L 188.054688 34.605469 C 187.964844 32.363281 186.121094 30.5625 183.855469 30.5625 C 182.585938 30.5625 181.453125 31.125 180.683594 32.011719 L 143.785156 19.042969 C 144.050781 18.34375 144.203125 17.59375 144.203125 16.800781 C 144.203125 13.324219 141.382812 10.503906 137.90625 10.503906 C 134.429688 10.503906 131.605469 13.324219 131.605469 16.800781 C 131.605469 17.15625 131.648438 17.507812 131.703125 17.847656 L 93.972656 24.199219 C 93.226562 22.167969 91.277344 20.71875 88.992188 20.71875 C 86.058594 20.71875 83.683594 23.09375 83.683594 26.027344 C 83.683594 26.3125 83.707031 26.578125 83.75 26.847656 L 33.21875 66.375 C 32.320312 64.765625 30.601562 63.675781 28.625 63.675781 C 25.71875 63.675781 23.359375 66.035156 23.359375 68.9375 C 23.359375 71.074219 24.632812 72.910156 26.460938 73.734375 L 8.371094 139.632812 C 6.484375 140.4375 5.164062 142.304688 5.164062 144.480469 C 5.164062 146.664062 6.5625 148.628906 8.527344 149.390625 L 22.046875 202.90625 C 20.226562 204.292969 19.046875 206.476562 19.046875 208.949219 C 19.046875 213.144531 22.453125 216.546875 26.648438 216.546875 C 27.820312 216.546875 28.921875 216.277344 29.914062 215.796875 L 62.792969 249.507812 C 62.492188 250.179688 62.316406 250.914062 62.316406 251.695312 C 62.316406 254.605469 64.671875 256.957031 67.582031 256.957031 C 69.613281 256.957031 71.371094 255.800781 72.253906 254.113281 L 109.246094 267.1875 C 109.210938 267.476562 109.191406 267.761719 109.191406 268.050781 C 109.191406 272.234375 112.585938 275.628906 116.761719 275.628906 C 120.621094 275.628906 123.789062 272.75 124.273438 269.03125 L 169.945312 263.097656 C 170.21875 264.996094 171.851562 266.460938 173.828125 266.460938 C 176 266.460938 177.757812 264.703125 177.757812 262.535156 C 177.757812 262.363281 177.742188 262.191406 177.722656 262.027344 L 199.066406 258.710938 L 199.007812 257.710938 L 177.46875 261.054688 C 177.261719 260.566406 176.96875 260.117188 176.597656 259.75 L 204.207031 226.578125 C 204.671875 226.710938 205.160156 226.785156 205.664062 226.785156 C 206.792969 226.785156 207.839844 226.421875 208.699219 225.824219 L 221.835938 229.996094 C 221.835938 229.996094 221.835938 230 221.835938 230.007812 C 221.835938 231.785156 223.28125 233.230469 225.058594 233.230469 C 226.84375 233.230469 228.28125 231.785156 228.28125 230.007812 C 228.28125 228.222656 226.84375 226.785156 225.058594 226.785156 C 223.640625 226.785156 222.421875 227.710938 222.007812 228.996094 L 209.570312 225.050781 C 210.421875 224.117188 210.941406 222.878906 210.941406 221.523438 C 210.941406 219.433594 209.714844 217.625 207.9375 216.773438 L 208.875 202.210938 C 209.222656 202.339844 209.597656 202.417969 209.992188 202.417969 C 211.769531 202.417969 213.214844 200.980469 213.214844 199.195312 C 213.214844 198.765625 213.125 198.355469 212.972656 197.980469 L 233.464844 187.519531 C 233.789062 187.960938 234.21875 188.324219 234.714844 188.554688 L 230.109375 204.613281 C 228.398438 204.683594 227.023438 206.09375 227.023438 207.828125 C 227.023438 209.566406 228.464844 211.050781 230.246094 211.050781 C 232.023438 211.050781 233.464844 209.605469 233.464844 207.828125 C 233.464844 206.347656 232.472656 205.101562 231.105469 204.726562 L 235.671875 188.835938 C 235.804688 188.851562 235.9375 188.863281 236.070312 188.863281 C 237.261719 188.863281 238.308594 188.207031 238.863281 187.246094 L 250.21875 191.601562 C 250.210938 191.671875 250.195312 191.746094 250.195312 191.820312 C 250.195312 193.234375 251.347656 194.382812 252.765625 194.382812 C 254.179688 194.382812 255.328125 193.234375 255.328125 191.820312 C 255.328125 190.402344 254.179688 189.253906 252.765625 189.253906 C 251.777344 189.253906 250.925781 189.824219 250.496094 190.640625 L 239.21875 186.308594 C 239.269531 186.09375 239.300781 185.867188 239.300781 185.640625 C 239.300781 185.214844 239.214844 184.804688 239.0625 184.4375 L 245.933594 180.347656 L 245.425781 179.488281 L 238.554688 183.578125 C 237.960938 182.871094 237.066406 182.410156 236.078125 182.410156 C 235.289062 182.410156 234.578125 182.695312 234.015625 183.160156 L 220.378906 171.171875 C 220.644531 170.664062 220.796875 170.085938 220.796875 169.476562 C 220.796875 168.933594 220.675781 168.414062 220.464844 167.949219 L 243.054688 157.648438 C 243.675781 158.816406 244.902344 159.617188 246.320312 159.617188 C 246.882812 159.617188 247.40625 159.488281 247.886719 159.257812 L 257.644531 170.636719 L 258.398438 169.992188 L 248.738281 158.714844 C 249.515625 158.03125 250.023438 157.035156 250.023438 155.914062 C 250.023438 154.796875 249.476562 153.703125 248.621094 153.019531 L 262.167969 143.019531 C 262.679688 143.410156 263.316406 143.648438 264.011719 143.648438 Z M 33.636719 70.546875 L 44.679688 75.273438 C 44.109375 76.265625 43.777344 77.414062 43.777344 78.636719 C 43.777344 80.414062 44.464844 82.039062 45.597656 83.242188 L 30.953125 104.726562 C 30.746094 104.660156 30.542969 104.613281 30.332031 104.585938 L 29.296875 74.15625 C 31.339844 73.894531 33.019531 72.464844 33.636719 70.546875 Z M 154.945312 182.574219 C 154.300781 182.011719 153.511719 181.601562 152.640625 181.40625 L 152.394531 150.824219 C 152.546875 150.828125 152.691406 150.847656 152.84375 150.847656 C 154.941406 150.847656 156.84375 150.0625 158.300781 148.773438 C 164.117188 155.074219 176.941406 168.992188 182.476562 175.125 C 181.738281 175.855469 181.277344 176.867188 181.242188 177.976562 L 154.945312 182.566406 Z M 163.363281 220.011719 C 163.363281 220.519531 163.460938 221.011719 163.621094 221.464844 L 136.414062 224.546875 C 135.964844 223.472656 135.191406 222.5625 134.226562 221.929688 L 150.355469 191.671875 C 150.726562 191.757812 151.101562 191.800781 151.488281 191.800781 C 152.363281 191.800781 153.1875 191.582031 153.917969 191.203125 L 165.132812 216.585938 C 164.0625 217.347656 163.363281 218.597656 163.363281 220.011719 Z M 89.34375 221.398438 C 89.289062 219.347656 87.957031 217.628906 86.109375 217 L 97.15625 190.386719 C 97.679688 190.5 98.226562 190.5625 98.789062 190.5625 C 99.972656 190.5625 101.089844 190.28125 102.089844 189.792969 L 126.816406 222.878906 C 125.964844 223.808594 125.421875 225.019531 125.324219 226.355469 L 89.34375 221.390625 Z M 61.546875 181.84375 C 62.398438 181.273438 63.089844 180.46875 63.488281 179.515625 L 91.234375 183.480469 C 91.433594 186.539062 93.4375 189.097656 96.195312 190.105469 L 85.117188 216.785156 C 84.933594 216.765625 84.753906 216.753906 84.578125 216.753906 C 83.5625 216.753906 82.625 217.066406 81.851562 217.613281 L 61.542969 181.84375 Z M 30.566406 165.371094 L 43.664062 139.65625 C 44.988281 140.785156 46.699219 141.46875 48.585938 141.46875 C 48.613281 141.46875 48.652344 141.46875 48.679688 141.46875 L 57.386719 172.347656 C 55.714844 172.761719 54.351562 173.96875 53.742188 175.558594 L 31.894531 168.371094 C 31.921875 168.214844 31.9375 168.0625 31.9375 167.90625 C 31.9375 166.847656 31.386719 165.914062 30.566406 165.371094 Z M 57.222656 77.710938 L 71.46875 71.980469 C 71.742188 72.933594 72.460938 73.691406 73.386719 74.023438 L 73.511719 95.722656 C 73.179688 95.90625 72.890625 96.148438 72.65625 96.441406 L 56.136719 82.425781 C 56.867188 81.34375 57.296875 80.039062 57.296875 78.640625 C 57.296875 78.328125 57.273438 78.019531 57.230469 77.71875 Z M 183.265625 174.519531 C 177.714844 168.359375 164.851562 154.398438 159.015625 148.078125 C 160.320312 146.621094 161.125 144.6875 161.125 142.578125 C 161.125 142.339844 161.105469 142.117188 161.082031 141.886719 L 187.257812 140.039062 C 187.566406 141.34375 188.484375 142.414062 189.695312 142.933594 L 185.195312 173.921875 C 184.496094 173.964844 183.828125 174.175781 183.261719 174.527344 Z M 131.085938 221.003906 C 129.757812 221.003906 128.535156 221.457031 127.554688 222.214844 L 102.960938 189.308594 C 104.539062 188.261719 105.699219 186.636719 106.144531 184.730469 L 146.238281 186.910156 C 146.367188 188.835938 147.539062 190.476562 149.195312 191.285156 L 133.324219 221.457031 C 132.636719 221.167969 131.875 221.011719 131.082031 221.011719 Z M 63.808594 178.492188 C 63.875 178.152344 63.90625 177.808594 63.90625 177.457031 C 63.90625 175.355469 62.667969 173.539062 60.886719 172.699219 L 72.183594 154.082031 C 72.9375 154.5 73.804688 154.734375 74.714844 154.734375 C 75.96875 154.734375 77.117188 154.300781 78.023438 153.570312 L 95.714844 176.085938 C 93.25 177.179688 91.484375 179.554688 91.246094 182.367188 Z M 55.078125 137.777344 L 69.609375 148.21875 C 69.511719 148.625 69.449219 149.039062 69.449219 149.476562 C 69.449219 151.101562 70.1875 152.554688 71.347656 153.527344 L 60.097656 172.402344 C 59.636719 172.277344 59.148438 172.199219 58.644531 172.199219 C 58.535156 172.199219 58.425781 172.210938 58.320312 172.214844 L 49.722656 141.390625 C 52 141.046875 53.949219 139.6875 55.078125 137.78125 Z M 74.46875 74.210938 C 75.945312 74.191406 77.164062 73.128906 77.445312 71.730469 L 97.34375 75.613281 C 97.34375 75.65625 97.335938 75.699219 97.335938 75.734375 C 97.335938 76.75 97.699219 77.6875 98.296875 78.417969 L 76.53125 96.042969 C 76.058594 95.644531 75.453125 95.398438 74.789062 95.398438 C 74.757812 95.398438 74.722656 95.410156 74.691406 95.410156 L 74.476562 74.214844 Z M 120.144531 62.445312 C 120.144531 62.445312 120.148438 62.445312 120.160156 62.445312 L 130.488281 92.839844 C 130.308594 92.972656 130.136719 93.117188 129.988281 93.285156 L 105.425781 77.558594 C 105.691406 77.003906 105.84375 76.386719 105.84375 75.734375 C 105.84375 74.996094 105.648438 74.300781 105.324219 73.695312 L 118.164062 61.578125 C 118.660156 62.113281 119.363281 62.449219 120.148438 62.449219 Z M 147.414062 66.621094 C 147.824219 66.621094 148.214844 66.585938 148.609375 66.53125 L 155.761719 99.496094 C 155.085938 99.773438 154.527344 100.28125 154.171875 100.910156 L 135.355469 95.519531 C 135.355469 95.453125 135.367188 95.390625 135.367188 95.332031 C 135.367188 94.21875 134.773438 93.246094 133.890625 92.707031 L 144.65625 66.175781 C 145.527344 66.464844 146.449219 66.621094 147.417969 66.621094 Z M 179.175781 112.273438 L 157.804688 135.960938 C 156.65625 135.097656 155.285156 134.523438 153.777344 134.355469 L 157.207031 105.855469 C 158.574219 105.789062 159.714844 104.902344 160.15625 103.667969 L 178.1875 108.832031 C 178.152344 109.050781 178.128906 109.28125 178.128906 109.507812 C 178.128906 110.566406 178.527344 111.535156 179.175781 112.273438 Z M 145.351562 146.089844 L 126.324219 154.6875 C 125.761719 153.972656 124.882812 153.507812 123.898438 153.507812 C 123.402344 153.507812 122.929688 153.628906 122.511719 153.839844 L 104.808594 129.679688 C 106.074219 128.898438 107.121094 127.816406 107.851562 126.523438 L 145.253906 139.269531 C 144.804688 140.277344 144.558594 141.398438 144.558594 142.578125 C 144.558594 143.828125 144.84375 145.019531 145.34375 146.089844 Z M 100.484375 175.625 L 99.972656 131.003906 C 100.03125 131.003906 100.09375 131.015625 100.152344 131.015625 C 101.503906 131.015625 102.777344 130.703125 103.933594 130.164062 L 121.703125 154.425781 C 121.160156 154.984375 120.820312 155.746094 120.820312 156.585938 C 120.820312 157.179688 120.988281 157.730469 121.28125 158.207031 L 103.050781 176.75 C 102.28125 176.226562 101.410156 175.84375 100.480469 175.625 Z M 101.585938 79.984375 C 102.929688 79.984375 104.121094 79.367188 104.898438 78.402344 L 129.453125 94.121094 C 129.292969 94.488281 129.207031 94.902344 129.207031 95.332031 C 129.207031 95.90625 129.363281 96.441406 129.640625 96.902344 L 106.730469 116.246094 C 105.246094 114.589844 103.140625 113.492188 100.769531 113.332031 L 101.25 79.964844 C 101.355469 79.980469 101.472656 79.984375 101.582031 79.984375 Z M 156.214844 105.761719 L 152.78125 134.304688 C 152.242188 134.304688 151.71875 134.359375 151.203125 134.460938 L 134.027344 97.871094 C 134.519531 97.53125 134.910156 97.054688 135.132812 96.492188 L 153.804688 101.84375 C 153.753906 102.070312 153.726562 102.308594 153.726562 102.554688 C 153.726562 104.097656 154.78125 105.390625 156.214844 105.761719 Z M 107.367188 117.023438 L 130.289062 97.671875 C 130.828125 98.136719 131.523438 98.40625 132.289062 98.40625 C 132.582031 98.40625 132.859375 98.367188 133.125 98.292969 L 150.230469 134.730469 C 148.320312 135.363281 146.722656 136.667969 145.71875 138.375 L 108.308594 125.621094 C 108.757812 124.558594 109.011719 123.386719 109.011719 122.15625 C 109.011719 120.234375 108.394531 118.476562 107.367188 117.019531 Z M 77.503906 98.117188 C 77.503906 97.507812 77.292969 96.957031 76.960938 96.503906 L 99.09375 79.175781 C 99.453125 79.429688 99.84375 79.640625 100.269531 79.773438 L 99.785156 113.324219 C 97.195312 113.425781 94.898438 114.636719 93.34375 116.5 L 76.621094 100.105469 C 77.160156 99.605469 77.496094 98.910156 77.496094 98.117188 Z M 93.871094 128.402344 L 78.210938 145.546875 C 77.28125 144.722656 76.058594 144.214844 74.714844 144.214844 C 72.613281 144.214844 70.796875 145.453125 69.953125 147.246094 L 55.539062 136.882812 C 55.929688 135.972656 56.148438 134.964844 56.148438 133.914062 C 56.148438 132.574219 55.796875 131.324219 55.191406 130.234375 L 91.683594 124.769531 C 92.113281 126.15625 92.867188 127.398438 93.867188 128.402344 Z M 98.789062 175.433594 C 98.054688 175.433594 97.367188 175.535156 96.703125 175.730469 L 78.742188 152.867188 C 79.515625 151.949219 79.984375 150.769531 79.984375 149.476562 C 79.984375 148.273438 79.570312 147.164062 78.886719 146.277344 L 94.617188 129.070312 C 95.84375 130.054688 97.335938 130.707031 98.96875 130.929688 L 99.484375 175.46875 C 99.253906 175.449219 99.015625 175.433594 98.789062 175.433594 Z M 121.9375 158.957031 C 122.472656 159.398438 123.152344 159.664062 123.898438 159.664062 C 124.5625 159.664062 125.171875 159.445312 125.675781 159.09375 L 148.210938 182.429688 C 147.152344 183.269531 146.425781 184.503906 146.257812 185.917969 L 106.316406 183.753906 C 106.339844 183.511719 106.351562 183.261719 106.351562 183.003906 C 106.351562 180.773438 105.378906 178.765625 103.835938 177.378906 L 121.9375 158.960938 Z M 149.0625 181.871094 L 126.382812 158.386719 C 126.757812 157.878906 126.976562 157.257812 126.976562 156.582031 C 126.976562 156.222656 126.914062 155.886719 126.800781 155.5625 L 145.835938 146.960938 C 147.054688 148.90625 149.058594 150.308594 151.402344 150.722656 L 151.652344 181.285156 C 151.601562 181.285156 151.546875 181.28125 151.488281 181.28125 C 150.617188 181.28125 149.792969 181.496094 149.070312 181.871094 Z M 187.136719 139.039062 L 160.945312 140.894531 C 160.597656 139.222656 159.746094 137.738281 158.554688 136.601562 L 179.90625 112.9375 C 180.59375 113.425781 181.429688 113.710938 182.328125 113.710938 C 182.664062 113.710938 182.976562 113.667969 183.285156 113.601562 L 189.914062 135.109375 C 188.296875 135.695312 187.144531 137.230469 187.132812 139.046875 Z M 178.453125 107.871094 L 160.34375 102.675781 C 160.34375 102.632812 160.351562 102.59375 160.351562 102.550781 C 160.351562 100.71875 158.863281 99.238281 157.039062 99.238281 C 156.929688 99.238281 156.828125 99.242188 156.71875 99.253906 L 149.582031 66.34375 C 150.363281 66.144531 151.101562 65.847656 151.785156 65.457031 L 180.261719 105.832031 C 179.453125 106.285156 178.8125 107.007812 178.449219 107.871094 Z M 143.710938 65.804688 L 132.957031 92.324219 C 132.738281 92.277344 132.507812 92.246094 132.277344 92.246094 C 131.957031 92.246094 131.648438 92.296875 131.363281 92.386719 L 121.132812 62.246094 C 122.136719 61.84375 122.851562 60.871094 122.851562 59.722656 C 122.851562 59.652344 122.839844 59.570312 122.832031 59.5 L 138.644531 58.972656 C 139.066406 62.015625 141.027344 64.566406 143.71875 65.800781 Z M 117.417969 59.730469 C 117.417969 60.105469 117.488281 60.460938 117.628906 60.789062 L 104.765625 72.921875 C 103.988281 72.039062 102.851562 71.476562 101.574219 71.476562 C 101.542969 71.476562 101.519531 71.476562 101.488281 71.476562 L 91.042969 30.917969 C 91.539062 30.710938 91.996094 30.429688 92.394531 30.089844 L 118.21875 57.789062 C 117.722656 58.277344 117.410156 58.960938 117.410156 59.71875 Z M 88.992188 31.335938 C 89.398438 31.335938 89.796875 31.289062 90.175781 31.203125 L 100.484375 71.621094 C 99.015625 72.007812 97.867188 73.164062 97.476562 74.628906 L 77.460938 70.722656 C 77.316406 69.667969 76.644531 68.785156 75.714844 68.351562 L 88.355469 31.292969 C 88.570312 31.324219 88.773438 31.335938 88.984375 31.335938 Z M 73.277344 100.375 C 73.707031 100.664062 74.222656 100.828125 74.769531 100.828125 C 75.117188 100.828125 75.441406 100.753906 75.746094 100.640625 L 92.734375 117.304688 C 91.820312 118.695312 91.285156 120.363281 91.285156 122.15625 C 91.285156 122.714844 91.34375 123.257812 91.445312 123.789062 L 54.582031 129.316406 C 54.253906 128.894531 53.894531 128.5 53.480469 128.15625 Z M 190.648438 143.210938 C 190.878906 143.246094 191.109375 143.273438 191.34375 143.273438 C 193.671875 143.273438 195.558594 141.386719 195.558594 139.0625 C 195.558594 138.675781 195.5 138.296875 195.410156 137.945312 L 210.664062 129.589844 C 211.015625 130.03125 211.425781 130.417969 211.898438 130.730469 L 186.285156 173.328125 L 190.648438 143.21875 Z M 195.019531 137.007812 C 194.300781 135.71875 192.921875 134.847656 191.34375 134.847656 C 191.1875 134.847656 191.03125 134.863281 190.886719 134.875 L 184.230469 113.265625 C 184.953125 112.894531 185.554688 112.332031 185.96875 111.636719 L 211.070312 122.628906 C 210.125 123.578125 209.539062 124.890625 209.539062 126.332031 C 209.539062 127.199219 209.757812 128.023438 210.125 128.75 L 195.027344 137.007812 Z M 211.925781 121.917969 L 186.363281 110.71875 C 186.484375 110.332031 186.542969 109.925781 186.542969 109.503906 C 186.542969 108.929688 186.429688 108.382812 186.222656 107.882812 L 218.898438 89.519531 C 219.292969 90.117188 219.835938 90.609375 220.46875 90.941406 L 213.597656 121.214844 C 212.992188 121.347656 212.429688 121.597656 211.925781 121.921875 Z M 218.457031 88.625 L 185.734375 107.019531 C 185.203125 106.285156 184.453125 105.734375 183.570312 105.46875 L 193.75 70.890625 C 193.980469 70.933594 194.210938 70.957031 194.453125 70.957031 C 195.621094 70.957031 196.679688 70.480469 197.441406 69.710938 L 218.359375 86.066406 C 218.265625 86.425781 218.203125 86.804688 218.203125 87.199219 C 218.203125 87.699219 218.292969 88.175781 218.457031 88.617188 Z M 192.789062 70.617188 L 182.578125 105.300781 C 182.5 105.300781 182.414062 105.289062 182.335938 105.289062 C 181.949219 105.289062 181.574219 105.34375 181.210938 105.441406 L 152.625 64.90625 C 154.167969 63.773438 155.332031 62.171875 155.890625 60.296875 L 190.25 66.496094 C 190.25 66.578125 190.238281 66.660156 190.238281 66.742188 C 190.238281 68.484375 191.289062 69.972656 192.789062 70.617188 Z M 138.558594 57.96875 L 122.523438 58.453125 C 122.070312 57.59375 121.175781 57.003906 120.136719 57.003906 C 119.773438 57.003906 119.429688 57.074219 119.121094 57.203125 L 92.976562 29.527344 C 93.417969 29.027344 93.761719 28.453125 93.988281 27.816406 L 139.207031 54.410156 C 138.785156 55.441406 138.546875 56.566406 138.546875 57.757812 C 138.546875 57.824219 138.558594 57.890625 138.558594 57.96875 Z M 87.136719 30.992188 L 74.714844 68.066406 C 74.621094 68.0625 74.515625 68.054688 74.414062 68.054688 C 72.714844 68.054688 71.335938 69.433594 71.335938 71.132812 C 71.335938 71.144531 71.335938 71.15625 71.335938 71.167969 L 57.019531 76.785156 C 56.667969 75.566406 55.984375 74.484375 55.070312 73.648438 L 86.167969 30.519531 C 86.472656 30.710938 86.796875 30.871094 87.128906 30.996094 Z M 55.5 83.203125 L 72.183594 97.355469 C 72.109375 97.589844 72.054688 97.84375 72.054688 98.105469 C 72.054688 98.691406 72.242188 99.222656 72.558594 99.664062 L 52.691406 127.550781 C 51.636719 126.875 50.417969 126.445312 49.097656 126.355469 L 51.457031 85.316406 C 53.046875 85.101562 54.460938 84.324219 55.496094 83.195312 Z M 48.101562 126.355469 C 46.183594 126.46875 44.464844 127.292969 43.191406 128.574219 L 31.992188 109.671875 C 32.578125 109.132812 32.949219 108.367188 32.949219 107.507812 C 32.949219 106.570312 32.507812 105.734375 31.824219 105.203125 L 46.328125 83.933594 C 47.464844 84.832031 48.894531 85.378906 50.445312 85.390625 L 48.089844 126.359375 Z M 30.007812 110.453125 C 30.421875 110.453125 30.808594 110.363281 31.164062 110.214844 L 42.511719 129.378906 C 41.570312 130.640625 41.003906 132.203125 41.003906 133.90625 C 41.003906 134.113281 41.019531 134.3125 41.03125 134.515625 L 15.25 142.371094 C 14.894531 141.566406 14.351562 140.871094 13.660156 140.339844 L 28.902344 110.234375 C 29.246094 110.375 29.621094 110.453125 30.015625 110.453125 Z M 15.554688 143.3125 L 41.175781 135.507812 C 41.472656 136.882812 42.144531 138.109375 43.070312 139.089844 L 29.664062 164.980469 C 29.421875 164.910156 29.164062 164.875 28.898438 164.875 C 28.390625 164.875 27.910156 165.003906 27.488281 165.226562 L 14.390625 147.941406 C 15.195312 147.007812 15.6875 145.804688 15.6875 144.480469 C 15.6875 144.082031 15.636719 143.695312 15.554688 143.3125 Z M 29.476562 170.867188 C 30.390625 170.691406 31.164062 170.101562 31.582031 169.300781 L 53.464844 176.503906 C 53.410156 176.8125 53.371094 177.125 53.371094 177.445312 C 53.371094 179.011719 54.0625 180.414062 55.152344 181.375 L 32.828125 204.527344 C 31.695312 202.949219 29.980469 201.820312 27.992188 201.460938 L 29.476562 170.863281 Z M 33.367188 205.40625 L 55.96875 181.976562 C 56.753906 182.441406 57.664062 182.707031 58.640625 182.707031 C 59.371094 182.707031 60.074219 182.5625 60.699219 182.289062 L 81.148438 218.199219 C 80.75 218.617188 80.417969 219.105469 80.1875 219.644531 L 34.121094 210.246094 C 34.195312 209.820312 34.242188 209.390625 34.242188 208.941406 C 34.242188 207.664062 33.921875 206.46875 33.367188 205.40625 Z M 89.257812 222.394531 L 125.332031 227.363281 C 125.554688 229.609375 127.066406 231.464844 129.117188 232.207031 L 121.164062 261.894531 C 119.925781 261.007812 118.402344 260.476562 116.761719 260.476562 C 115.117188 260.476562 113.523438 261.03125 112.265625 261.960938 L 86.054688 226.035156 C 87.691406 225.503906 88.9375 224.105469 89.257812 222.390625 Z M 122 262.589844 L 130.066406 232.46875 C 130.398438 232.523438 130.730469 232.558594 131.082031 232.558594 C 132.6875 232.558594 134.148438 231.898438 135.199219 230.835938 L 170.375 260.644531 C 170.132812 261.085938 169.976562 261.570312 169.921875 262.089844 L 124.328125 267.996094 C 124.316406 265.875 123.421875 263.964844 122 262.589844 Z M 170.945312 259.863281 L 135.820312 230.085938 C 136.480469 229.148438 136.867188 228.011719 136.867188 226.777344 C 136.867188 226.34375 136.8125 225.921875 136.722656 225.515625 L 164.117188 222.40625 C 164.796875 223.386719 165.878906 224.0625 167.125 224.195312 L 172.691406 258.777344 C 172.015625 258.980469 171.421875 259.363281 170.949219 259.863281 Z M 166.003906 216.105469 L 154.757812 190.65625 C 155.972656 189.695312 156.746094 188.207031 156.746094 186.539062 C 156.746094 185.386719 156.371094 184.320312 155.746094 183.449219 L 181.328125 178.980469 C 181.582031 180.191406 182.347656 181.207031 183.394531 181.800781 L 170.253906 216.765625 C 169.53125 216.167969 168.59375 215.804688 167.578125 215.804688 C 167.019531 215.804688 166.496094 215.914062 166.011719 216.105469 Z M 171 217.582031 L 184.3125 182.175781 C 184.675781 182.269531 185.050781 182.332031 185.445312 182.332031 C 186.484375 182.332031 187.433594 181.949219 188.171875 181.328125 L 207.59375 197.03125 C 207.078125 197.605469 206.757812 198.359375 206.757812 199.195312 C 206.757812 199.449219 206.789062 199.695312 206.847656 199.9375 L 171.367188 218.199219 C 171.257812 217.980469 171.144531 217.777344 171.003906 217.582031 Z M 209.972656 195.964844 C 209.398438 195.964844 208.863281 196.125 208.394531 196.382812 L 188.84375 180.589844 C 189.34375 179.894531 189.644531 179.042969 189.644531 178.117188 C 189.644531 177.785156 189.605469 177.464844 189.53125 177.148438 L 213.511719 170.449219 C 213.824219 171.585938 214.671875 172.507812 215.761719 172.917969 L 210.566406 196.019531 C 210.378906 195.984375 210.171875 195.960938 209.972656 195.960938 Z M 213.382812 169.453125 L 189.1875 176.210938 C 188.714844 175.28125 187.910156 174.554688 186.929688 174.1875 L 212.785156 131.199219 C 213.335938 131.425781 213.933594 131.558594 214.550781 131.585938 L 216.414062 165.832031 C 214.695312 166.140625 213.382812 167.644531 213.382812 169.453125 Z M 247.691406 119.859375 C 247.269531 120.355469 247.003906 120.984375 246.964844 121.679688 L 219.804688 124.699219 C 219.117188 122.59375 217.140625 121.0625 214.800781 121.0625 C 214.757812 121.0625 214.707031 121.070312 214.660156 121.070312 L 221.425781 91.285156 C 221.746094 91.363281 222.078125 91.40625 222.421875 91.40625 C 222.863281 91.40625 223.292969 91.339844 223.691406 91.210938 L 247.699219 119.855469 Z M 221.238281 62.535156 C 221.304688 62.535156 221.371094 62.527344 221.4375 62.523438 L 223.078125 83.042969 C 222.859375 83.015625 222.640625 82.988281 222.417969 82.988281 C 220.851562 82.988281 219.484375 83.847656 218.757812 85.113281 L 198.050781 68.925781 C 198.382812 68.382812 198.59375 67.753906 198.648438 67.074219 L 218.480469 60.828125 C 218.988281 61.839844 220.027344 62.535156 221.238281 62.535156 Z M 193.550781 62.636719 C 192.058594 62.957031 190.863281 64.070312 190.421875 65.523438 L 156.105469 59.335938 C 156.199219 58.828125 156.257812 58.300781 156.257812 57.765625 C 156.257812 55.769531 155.59375 53.9375 154.472656 52.449219 L 180.472656 37.285156 C 181.246094 38.320312 182.46875 38.984375 183.855469 38.984375 C 184.589844 38.984375 185.28125 38.796875 185.886719 38.457031 Z M 180.105469 32.867188 C 179.816406 33.433594 179.644531 34.085938 179.644531 34.777344 C 179.644531 35.363281 179.765625 35.917969 179.976562 36.425781 L 153.828125 51.675781 C 152.207031 49.976562 149.933594 48.90625 147.398438 48.90625 C 146.710938 48.90625 146.035156 48.996094 145.378906 49.140625 L 139.320312 22.929688 C 141.046875 22.539062 142.492188 21.429688 143.355469 19.949219 Z M 131.945312 18.820312 C 132.785156 21.3125 135.132812 23.101562 137.90625 23.101562 C 138.046875 23.101562 138.191406 23.09375 138.335938 23.082031 L 144.429688 49.4375 C 142.375 50.171875 140.671875 51.628906 139.636719 53.511719 L 94.234375 26.824219 C 94.277344 26.566406 94.300781 26.304688 94.300781 26.03125 C 94.300781 25.738281 94.269531 25.453125 94.226562 25.167969 Z M 84.023438 27.902344 C 84.316406 28.675781 84.785156 29.363281 85.382812 29.914062 L 54.292969 73.03125 C 53.222656 72.304688 51.921875 71.882812 50.523438 71.882812 C 48.382812 71.882812 46.480469 72.886719 45.242188 74.445312 L 33.835938 69.5625 C 33.859375 69.359375 33.875 69.160156 33.875 68.957031 C 33.875 68.386719 33.78125 67.84375 33.613281 67.328125 Z M 27.402344 74.058594 C 27.695312 74.125 27.992188 74.167969 28.296875 74.191406 L 29.332031 104.652344 C 28.039062 104.957031 27.082031 106.117188 27.082031 107.507812 C 27.082031 108.378906 27.464844 109.160156 28.0625 109.695312 L 12.820312 139.796875 C 12.105469 139.425781 11.296875 139.214844 10.429688 139.214844 C 10.109375 139.214844 9.796875 139.246094 9.5 139.300781 Z M 9.628906 149.675781 C 9.886719 149.71875 10.152344 149.746094 10.429688 149.746094 C 11.652344 149.746094 12.785156 149.324219 13.679688 148.625 L 26.707031 165.820312 C 26.195312 166.355469 25.878906 167.089844 25.878906 167.898438 C 25.878906 169.421875 27.003906 170.679688 28.46875 170.890625 L 26.660156 201.339844 C 26.660156 201.339844 26.652344 201.339844 26.648438 201.339844 C 25.292969 201.339844 24.03125 201.699219 22.929688 202.316406 Z M 30.8125 215.289062 C 32.265625 214.335938 33.367188 212.90625 33.898438 211.210938 L 79.90625 220.597656 C 79.84375 220.894531 79.8125 221.199219 79.8125 221.511719 C 79.8125 222.882812 80.394531 224.117188 81.324219 224.988281 L 68.785156 246.570312 C 68.398438 246.476562 67.992188 246.421875 67.582031 246.421875 C 65.824219 246.421875 64.273438 247.289062 63.3125 248.613281 Z M 72.625 253.1875 C 72.769531 252.710938 72.84375 252.210938 72.84375 251.691406 C 72.84375 249.550781 71.574219 247.71875 69.742188 246.890625 L 82.125 225.59375 C 82.835938 226.023438 83.675781 226.277344 84.578125 226.277344 C 84.710938 226.277344 84.839844 226.265625 84.964844 226.253906 L 111.519531 262.589844 C 110.515625 263.558594 109.78125 264.796875 109.429688 266.195312 Z M 175.769531 259.113281 C 175.203125 258.789062 174.53125 258.601562 173.828125 258.601562 C 173.773438 258.601562 173.714844 258.601562 173.660156 258.605469 L 168.113281 224.183594 C 170.164062 223.925781 171.753906 222.183594 171.785156 220.074219 L 200.410156 221.722656 C 200.480469 223.632812 201.574219 225.292969 203.164062 226.148438 Z M 207 216.425781 C 206.570312 216.3125 206.128906 216.246094 205.664062 216.246094 C 203.019531 216.246094 200.84375 218.1875 200.464844 220.71875 L 171.683594 219.0625 C 171.671875 219.015625 171.660156 218.972656 171.640625 218.929688 L 207.285156 200.9375 C 207.507812 201.273438 207.792969 201.570312 208.117188 201.808594 L 206.992188 216.425781 Z M 233.347656 183.890625 C 233.035156 184.386719 232.847656 184.980469 232.847656 185.621094 C 232.847656 185.964844 232.90625 186.304688 233.011719 186.625 L 212.484375 197.152344 C 212.21875 196.820312 211.882812 196.546875 211.511719 196.339844 L 216.59375 173.117188 C 216.757812 173.136719 216.925781 173.152344 217.097656 173.152344 C 218.167969 173.152344 219.128906 172.699219 219.804688 171.972656 L 233.355469 183.890625 Z M 219.933594 167.082031 C 219.316406 166.355469 218.425781 165.863281 217.417969 165.769531 L 215.5625 131.519531 C 216.503906 131.386719 217.367188 131.003906 218.082031 130.4375 L 243.738281 153.238281 C 243.042969 153.914062 242.613281 154.851562 242.613281 155.886719 C 242.613281 156.164062 242.648438 156.433594 242.703125 156.695312 L 219.933594 167.078125 Z M 219.933594 167.082031 " fill-opacity="1" fill-rule="nonzero"/></g><g clip-path="url(#fb12ac7795)"><path fill="#10144a" d="M 268.75 157.679688 C 268.75 157.972656 268.695312 158.25 268.585938 158.515625 C 268.472656 158.78125 268.316406 159.015625 268.109375 159.222656 C 267.90625 159.429688 267.667969 159.585938 267.402344 159.695312 C 267.136719 159.808594 266.859375 159.863281 266.566406 159.863281 C 266.277344 159.863281 266 159.808594 265.734375 159.695312 C 265.46875 159.585938 265.226562 159.429688 265.027344 159.222656 C 264.820312 159.015625 264.664062 158.78125 264.546875 158.515625 C 264.441406 158.25 264.386719 157.972656 264.386719 157.679688 C 264.386719 157.390625 264.441406 157.113281 264.546875 156.847656 C 264.664062 156.574219 264.820312 156.339844 265.027344 156.132812 C 265.226562 155.933594 265.46875 155.769531 265.734375 155.660156 C 266 155.550781 266.277344 155.496094 266.566406 155.496094 C 266.859375 155.496094 267.136719 155.550781 267.402344 155.660156 C 267.667969 155.769531 267.90625 155.933594 268.109375 156.132812 C 268.316406 156.339844 268.472656 156.574219 268.585938 156.847656 C 268.695312 157.113281 268.75 157.390625 268.75 157.679688 Z M 268.75 157.679688 " fill-opacity="1" fill-rule="nonzero"/></g><path fill="#10144a" d="M 230.15625 151.125 C 230.242188 151.457031 230.253906 151.796875 230.191406 152.136719 C 230.140625 152.476562 230.023438 152.789062 229.84375 153.085938 C 229.660156 153.375 229.429688 153.625 229.152344 153.824219 C 228.875 154.023438 228.566406 154.160156 228.234375 154.246094 C 227.894531 154.324219 227.5625 154.335938 227.222656 154.277344 C 226.886719 154.222656 226.566406 154.105469 226.273438 153.925781 C 225.984375 153.746094 225.738281 153.515625 225.539062 153.238281 C 225.332031 152.957031 225.191406 152.648438 225.113281 152.316406 C 225.035156 151.984375 225.023438 151.644531 225.078125 151.308594 C 225.132812 150.96875 225.253906 150.648438 225.433594 150.359375 C 225.617188 150.066406 225.847656 149.820312 226.125 149.621094 C 226.402344 149.414062 226.710938 149.277344 227.042969 149.199219 C 227.375 149.117188 227.714844 149.105469 228.054688 149.160156 C 228.390625 149.214844 228.707031 149.335938 229.003906 149.519531 C 229.292969 149.699219 229.539062 149.929688 229.738281 150.207031 C 229.9375 150.484375 230.078125 150.792969 230.15625 151.125 Z M 230.15625 151.125 " fill-opacity="1" fill-rule="nonzero"/><path fill="#10144a" d="M 241.058594 170.203125 C 241.058594 171.0625 241.753906 171.761719 242.613281 171.761719 C 243.472656 171.761719 244.171875 171.0625 244.171875 170.203125 C 244.171875 169.34375 243.472656 168.644531 242.613281 168.644531 C 241.753906 168.644531 241.058594 169.34375 241.058594 170.203125 Z M 241.058594 170.203125 " fill-opacity="1" fill-rule="nonzero"/><path fill="#10144a" d="M 201.957031 179.714844 C 201.097656 179.714844 200.398438 180.414062 200.398438 181.273438 C 200.398438 182.132812 201.097656 182.832031 201.957031 182.832031 C 202.816406 182.832031 203.515625 182.132812 203.515625 181.273438 C 203.515625 180.414062 202.816406 179.714844 201.957031 179.714844 Z M 201.957031 179.714844 " fill-opacity="1" fill-rule="nonzero"/><path fill="#10144a" d="M 196.140625 122.949219 C 195.28125 122.949219 194.585938 123.652344 194.585938 124.511719 C 194.585938 125.367188 195.28125 126.070312 196.140625 126.070312 C 197 126.070312 197.699219 125.367188 197.699219 124.511719 C 197.699219 123.652344 197 122.949219 196.140625 122.949219 Z M 196.140625 122.949219 " fill-opacity="1" fill-rule="nonzero"/><path fill="#10144a" d="M 187.246094 197.628906 C 186.386719 197.628906 185.6875 198.324219 185.6875 199.183594 C 185.6875 200.042969 186.386719 200.742188 187.246094 200.742188 C 188.105469 200.742188 188.800781 200.042969 188.800781 199.183594 C 188.800781 198.324219 188.105469 197.628906 187.246094 197.628906 Z M 187.246094 197.628906 " fill-opacity="1" fill-rule="nonzero"/><path fill="#10144a" d="M 160.738281 233.804688 C 159.878906 233.804688 159.183594 234.503906 159.183594 235.363281 C 159.183594 236.222656 159.878906 236.925781 160.738281 236.925781 C 161.597656 236.925781 162.296875 236.222656 162.296875 235.363281 C 162.296875 234.503906 161.597656 233.804688 160.738281 233.804688 Z M 160.738281 233.804688 " fill-opacity="1" fill-rule="nonzero"/><path fill="#10144a" d="M 248.1875 137.414062 C 248.265625 137.746094 248.277344 138.085938 248.222656 138.421875 C 248.167969 138.761719 248.046875 139.074219 247.867188 139.367188 C 247.683594 139.664062 247.457031 139.902344 247.175781 140.109375 C 246.898438 140.308594 246.597656 140.449219 246.257812 140.527344 C 245.925781 140.605469 245.585938 140.617188 245.25 140.5625 C 244.910156 140.507812 244.59375 140.386719 244.300781 140.210938 C 244.007812 140.03125 243.761719 139.800781 243.5625 139.523438 C 243.363281 139.238281 243.222656 138.9375 243.144531 138.597656 C 243.066406 138.265625 243.054688 137.925781 243.109375 137.589844 C 243.164062 137.25 243.277344 136.933594 243.457031 136.644531 C 243.640625 136.347656 243.871094 136.105469 244.148438 135.902344 C 244.425781 135.703125 244.734375 135.5625 245.066406 135.484375 C 245.40625 135.40625 245.738281 135.394531 246.078125 135.449219 C 246.421875 135.503906 246.734375 135.625 247.027344 135.796875 C 247.316406 135.980469 247.5625 136.210938 247.765625 136.488281 C 247.96875 136.773438 248.109375 137.074219 248.1875 137.414062 Z M 248.1875 137.414062 " fill-opacity="1" fill-rule="nonzero"/><path fill="#10144a" d="M 229.914062 110.535156 C 229.992188 110.871094 230.003906 111.207031 229.953125 111.546875 C 229.898438 111.886719 229.777344 112.199219 229.59375 112.488281 C 229.414062 112.785156 229.183594 113.035156 228.90625 113.234375 C 228.628906 113.433594 228.324219 113.574219 227.984375 113.652344 C 227.652344 113.730469 227.316406 113.742188 226.976562 113.6875 C 226.636719 113.632812 226.324219 113.519531 226.027344 113.335938 C 225.738281 113.15625 225.488281 112.925781 225.289062 112.648438 C 225.089844 112.367188 224.949219 112.0625 224.871094 111.726562 C 224.792969 111.390625 224.78125 111.058594 224.835938 110.710938 C 224.890625 110.375 225.003906 110.058594 225.1875 109.769531 C 225.367188 109.472656 225.597656 109.230469 225.875 109.027344 C 226.152344 108.824219 226.460938 108.6875 226.796875 108.609375 C 227.132812 108.53125 227.464844 108.515625 227.804688 108.570312 C 228.148438 108.625 228.464844 108.746094 228.753906 108.929688 C 229.042969 109.105469 229.292969 109.332031 229.492188 109.613281 C 229.699219 109.894531 229.835938 110.199219 229.914062 110.535156 Z M 229.914062 110.535156 " fill-opacity="1" fill-rule="nonzero"/><path fill="#10144a" d="M 157.28125 34.183594 C 157.359375 34.515625 157.371094 34.855469 157.316406 35.191406 C 157.261719 35.53125 157.140625 35.847656 156.964844 36.140625 C 156.785156 36.433594 156.554688 36.679688 156.277344 36.878906 C 155.992188 37.078125 155.691406 37.21875 155.351562 37.296875 C 155.019531 37.375 154.679688 37.386719 154.339844 37.332031 C 154.003906 37.277344 153.6875 37.164062 153.398438 36.984375 C 153.101562 36.800781 152.855469 36.570312 152.65625 36.292969 C 152.453125 36.015625 152.316406 35.707031 152.238281 35.375 C 152.160156 35.035156 152.148438 34.703125 152.199219 34.363281 C 152.253906 34.019531 152.371094 33.707031 152.550781 33.414062 C 152.734375 33.125 152.960938 32.878906 153.242188 32.679688 C 153.519531 32.472656 153.828125 32.332031 154.160156 32.253906 C 154.5 32.175781 154.835938 32.164062 155.175781 32.21875 C 155.515625 32.273438 155.828125 32.394531 156.117188 32.574219 C 156.414062 32.757812 156.65625 32.984375 156.863281 33.265625 C 157.0625 33.542969 157.203125 33.851562 157.28125 34.183594 Z M 157.28125 34.183594 " fill-opacity="1" fill-rule="nonzero"/><path fill="#10144a" d="M 128.933594 34.183594 C 129.011719 34.515625 129.023438 34.855469 128.972656 35.191406 C 128.917969 35.53125 128.796875 35.847656 128.613281 36.136719 C 128.433594 36.433594 128.203125 36.679688 127.925781 36.878906 C 127.648438 37.078125 127.339844 37.21875 127.003906 37.296875 C 126.671875 37.375 126.335938 37.386719 125.996094 37.332031 C 125.65625 37.277344 125.34375 37.15625 125.046875 36.984375 C 124.757812 36.800781 124.507812 36.570312 124.308594 36.292969 C 124.109375 36.015625 123.96875 35.707031 123.890625 35.367188 C 123.808594 35.035156 123.796875 34.699219 123.855469 34.359375 C 123.910156 34.019531 124.023438 33.707031 124.207031 33.414062 C 124.386719 33.121094 124.617188 32.878906 124.894531 32.671875 C 125.171875 32.472656 125.480469 32.332031 125.816406 32.253906 C 126.152344 32.175781 126.484375 32.164062 126.824219 32.21875 C 127.164062 32.273438 127.484375 32.394531 127.773438 32.570312 C 128.0625 32.75 128.3125 32.980469 128.511719 33.257812 C 128.71875 33.542969 128.855469 33.84375 128.933594 34.183594 Z M 128.933594 34.183594 " fill-opacity="1" fill-rule="nonzero"/><g clip-path="url(#3f2c55c784)"><path fill="#10144a" d="M 269.089844 114.59375 C 269.167969 114.925781 269.179688 115.265625 269.125 115.605469 C 269.070312 115.941406 268.949219 116.257812 268.773438 116.546875 C 268.59375 116.84375 268.363281 117.089844 268.085938 117.289062 C 267.800781 117.492188 267.5 117.628906 267.160156 117.707031 C 266.828125 117.785156 266.488281 117.796875 266.152344 117.746094 C 265.8125 117.691406 265.496094 117.570312 265.207031 117.394531 C 264.910156 117.210938 264.664062 116.984375 264.464844 116.703125 C 264.265625 116.425781 264.125 116.117188 264.046875 115.777344 C 263.96875 115.445312 263.957031 115.109375 264.011719 114.769531 C 264.066406 114.429688 264.179688 114.117188 264.359375 113.828125 C 264.542969 113.53125 264.773438 113.289062 265.050781 113.082031 C 265.328125 112.882812 265.636719 112.742188 265.976562 112.664062 C 266.308594 112.585938 266.648438 112.574219 266.984375 112.628906 C 267.324219 112.683594 267.636719 112.804688 267.929688 112.980469 C 268.226562 113.160156 268.464844 113.390625 268.671875 113.667969 C 268.871094 113.953125 269.011719 114.253906 269.089844 114.59375 Z M 269.089844 114.59375 " fill-opacity="1" fill-rule="nonzero"/></g><path fill="#10144a" d="M 238.785156 70.480469 C 239.394531 71.285156 240.550781 71.433594 241.355469 70.820312 C 242.152344 70.207031 242.304688 69.046875 241.695312 68.25 C 241.078125 67.445312 239.921875 67.292969 239.125 67.910156 C 238.3125 68.527344 238.167969 69.683594 238.785156 70.480469 Z M 238.785156 70.480469 " fill-opacity="1" fill-rule="nonzero"/><path fill="#10144a" d="M 201.839844 49.675781 C 201.039062 50.289062 200.890625 51.445312 201.503906 52.242188 C 202.121094 53.042969 203.273438 53.199219 204.074219 52.582031 C 204.882812 51.972656 205.027344 50.8125 204.417969 50.011719 C 203.800781 49.207031 202.644531 49.058594 201.839844 49.675781 Z M 201.839844 49.675781 " fill-opacity="1" fill-rule="nonzero"/></svg>